<svg xmlns="http://www.w3.org/2000/svg" xmlns:xlink="http://www.w3.org/1999/xlink" width="1080" zoomAndPan="magnify" viewBox="0 0 810 809.999993" height="1080" preserveAspectRatio="xMidYMid meet" version="1.0"><defs><clipPath id="ca9e493807"><path d="M 115 108.839844 L 693 108.839844 L 693 701.339844 L 115 701.339844 Z M 115 108.839844 " clip-rule="nonzero"/></clipPath></defs><g clip-path="url(#ca9e493807)"><path fill="#545454" d="M 647.742188 108.839844 L 208.613281 108.839844 C 207.941406 108.839844 207.277344 108.902344 206.621094 109.035156 C 205.964844 109.164062 205.324219 109.359375 204.707031 109.617188 C 204.085938 109.871094 203.496094 110.1875 202.941406 110.558594 C 202.382812 110.933594 201.867188 111.355469 201.390625 111.828125 C 200.917969 112.304688 200.496094 112.820312 200.121094 113.378906 C 199.75 113.933594 199.433594 114.523438 199.179688 115.144531 C 198.921875 115.761719 198.726562 116.402344 198.597656 117.058594 C 198.464844 117.714844 198.402344 118.378906 198.402344 119.050781 L 198.402344 153.671875 L 165.3125 153.671875 C 164.644531 153.671875 163.976562 153.734375 163.320312 153.867188 C 162.664062 153.996094 162.023438 154.191406 161.40625 154.449219 C 160.785156 154.703125 160.195312 155.019531 159.640625 155.390625 C 159.082031 155.765625 158.566406 156.1875 158.09375 156.660156 C 157.617188 157.136719 157.195312 157.652344 156.820312 158.210938 C 156.449219 158.765625 156.136719 159.355469 155.878906 159.976562 C 155.621094 160.59375 155.429688 161.234375 155.296875 161.890625 C 155.167969 162.546875 155.101562 163.210938 155.101562 163.882812 L 155.101562 226.6875 L 149.175781 226.6875 C 148.097656 226.683594 147.019531 226.734375 145.945312 226.835938 C 144.871094 226.9375 143.804688 227.09375 142.746094 227.300781 C 141.6875 227.503906 140.640625 227.761719 139.605469 228.070312 C 138.570312 228.382812 137.554688 228.738281 136.554688 229.148438 C 135.554688 229.558594 134.578125 230.011719 133.625 230.515625 C 132.667969 231.019531 131.742188 231.570312 130.839844 232.164062 C 129.941406 232.761719 129.070312 233.398438 128.234375 234.078125 C 127.394531 234.757812 126.589844 235.476562 125.824219 236.234375 C 125.054688 236.992188 124.324219 237.789062 123.636719 238.617188 C 122.945312 239.449219 122.296875 240.308594 121.691406 241.203125 C 121.085938 242.097656 120.523438 243.015625 120.007812 243.964844 C 119.492188 244.914062 119.023438 245.882812 118.605469 246.878906 C 118.183594 247.871094 117.8125 248.882812 117.488281 249.914062 C 117.167969 250.945312 116.898438 251.988281 116.679688 253.046875 C 116.457031 254.101562 116.292969 255.167969 116.175781 256.242188 C 116.058594 257.3125 115.996094 258.390625 115.988281 259.46875 L 115.988281 668.371094 C 115.996094 669.449219 116.058594 670.523438 116.175781 671.597656 C 116.292969 672.671875 116.457031 673.738281 116.679688 674.792969 C 116.898438 675.851562 117.167969 676.894531 117.488281 677.925781 C 117.8125 678.953125 118.183594 679.96875 118.605469 680.960938 C 119.023438 681.957031 119.492188 682.925781 120.007812 683.875 C 120.523438 684.824219 121.085938 685.742188 121.691406 686.636719 C 122.296875 687.53125 122.945312 688.390625 123.636719 689.222656 C 124.324219 690.050781 125.054688 690.847656 125.824219 691.605469 C 126.589844 692.363281 127.394531 693.082031 128.234375 693.761719 C 129.070312 694.441406 129.941406 695.078125 130.839844 695.675781 C 131.742188 696.269531 132.667969 696.820312 133.625 697.324219 C 134.578125 697.828125 135.554688 698.28125 136.554688 698.691406 C 137.554688 699.101562 138.570312 699.457031 139.605469 699.765625 C 140.640625 700.078125 141.6875 700.332031 142.746094 700.539062 C 143.804688 700.746094 144.871094 700.902344 145.945312 701.003906 C 147.019531 701.105469 148.097656 701.15625 149.175781 701.152344 L 659.792969 701.152344 C 660.871094 701.15625 661.949219 701.105469 663.023438 701.003906 C 664.097656 700.902344 665.164062 700.746094 666.222656 700.539062 C 667.285156 700.332031 668.332031 700.078125 669.363281 699.765625 C 670.398438 699.457031 671.414062 699.101562 672.414062 698.691406 C 673.414062 698.28125 674.390625 697.828125 675.34375 697.324219 C 676.300781 696.820312 677.226562 696.269531 678.128906 695.675781 C 679.027344 695.078125 679.898438 694.441406 680.738281 693.761719 C 681.574219 693.082031 682.378906 692.363281 683.148438 691.605469 C 683.914062 690.847656 684.644531 690.050781 685.335938 689.222656 C 686.023438 688.390625 686.671875 687.53125 687.277344 686.636719 C 687.882812 685.742188 688.445312 684.824219 688.960938 683.875 C 689.476562 682.925781 689.945312 681.957031 690.367188 680.960938 C 690.785156 679.96875 691.15625 678.953125 691.480469 677.925781 C 691.800781 676.894531 692.070312 675.851562 692.292969 674.792969 C 692.511719 673.738281 692.679688 672.671875 692.792969 671.597656 C 692.910156 670.523438 692.972656 669.449219 692.980469 668.371094 L 692.980469 382.425781 C 692.972656 381.425781 692.917969 380.429688 692.820312 379.4375 C 692.722656 378.445312 692.578125 377.457031 692.390625 376.476562 C 692.199219 375.496094 691.96875 374.527344 691.691406 373.566406 C 691.414062 372.605469 691.097656 371.660156 690.734375 370.730469 C 690.371094 369.800781 689.96875 368.886719 689.527344 367.992188 C 689.082031 367.101562 688.597656 366.226562 688.074219 365.378906 C 687.550781 364.527344 686.988281 363.703125 686.390625 362.902344 C 685.792969 362.101562 685.160156 361.332031 684.492188 360.589844 C 683.824219 359.847656 683.125 359.136719 682.394531 358.457031 C 681.660156 357.777344 680.898438 357.132812 680.109375 356.523438 C 679.320312 355.914062 678.503906 355.339844 677.660156 354.804688 C 676.816406 354.269531 675.953125 353.773438 675.066406 353.316406 C 674.179688 352.855469 673.273438 352.441406 672.347656 352.0625 C 671.421875 351.6875 670.480469 351.355469 669.527344 351.066406 C 668.570312 350.773438 667.605469 350.527344 666.625 350.324219 C 665.648438 350.121094 664.664062 349.960938 663.671875 349.847656 L 657.238281 349.234375 L 657.238281 119.050781 C 657.242188 118.410156 657.183594 117.773438 657.0625 117.144531 C 656.945312 116.511719 656.769531 115.898438 656.535156 115.300781 C 656.300781 114.703125 656.015625 114.132812 655.671875 113.589844 C 655.332031 113.046875 654.941406 112.539062 654.503906 112.070312 C 654.066406 111.601562 653.589844 111.175781 653.074219 110.796875 C 652.558594 110.417969 652.007812 110.089844 651.429688 109.8125 C 650.851562 109.535156 650.253906 109.316406 649.632812 109.152344 C 649.011719 108.988281 648.382812 108.882812 647.742188 108.839844 Z M 218.824219 128.546875 L 637.9375 128.546875 L 637.9375 346.785156 L 614.652344 344.332031 L 614.652344 163.578125 C 614.652344 162.90625 614.589844 162.242188 614.457031 161.585938 C 614.328125 160.925781 614.132812 160.289062 613.875 159.667969 C 613.621094 159.050781 613.304688 158.460938 612.933594 157.902344 C 612.558594 157.34375 612.136719 156.828125 611.664062 156.355469 C 611.1875 155.882812 610.671875 155.457031 610.113281 155.085938 C 609.558594 154.710938 608.96875 154.398438 608.347656 154.140625 C 607.730469 153.886719 607.089844 153.691406 606.433594 153.558594 C 605.777344 153.429688 605.113281 153.363281 604.441406 153.363281 L 218.316406 153.363281 Z M 175.21875 173.480469 L 594.945312 173.480469 L 594.945312 342.292969 L 392.742188 320.84375 L 315.023438 229.855469 C 314.105469 228.746094 312.992188 227.886719 311.6875 227.28125 C 310.382812 226.671875 309.011719 226.371094 307.570312 226.382812 L 174.808594 226.382812 Z M 661.835938 369.25 C 662.628906 369.332031 663.40625 369.484375 664.171875 369.707031 C 664.933594 369.929688 665.671875 370.222656 666.386719 370.582031 C 667.097656 370.9375 667.769531 371.359375 668.40625 371.839844 C 669.039062 372.320312 669.625 372.855469 670.164062 373.445312 C 670.699219 374.03125 671.179688 374.664062 671.601562 375.339844 C 672.023438 376.015625 672.378906 376.726562 672.671875 377.46875 C 672.960938 378.207031 673.183594 378.96875 673.335938 379.75 C 673.488281 380.535156 673.570312 381.324219 673.578125 382.121094 L 673.578125 668.0625 C 673.585938 668.960938 673.503906 669.851562 673.332031 670.730469 C 673.15625 671.613281 672.898438 672.46875 672.550781 673.296875 C 672.207031 674.125 671.777344 674.910156 671.273438 675.652344 C 670.769531 676.394531 670.191406 677.078125 669.546875 677.703125 C 668.902344 678.328125 668.203125 678.882812 667.445312 679.367188 C 666.691406 679.847656 665.890625 680.25 665.054688 680.570312 C 664.214844 680.894531 663.351562 681.128906 662.464844 681.273438 C 661.582031 681.421875 660.6875 681.476562 659.792969 681.441406 L 149.175781 681.441406 C 148.308594 681.449219 147.449219 681.371094 146.597656 681.207031 C 145.746094 681.046875 144.917969 680.804688 144.113281 680.480469 C 143.308594 680.15625 142.542969 679.757812 141.816406 679.28125 C 141.089844 678.808594 140.417969 678.269531 139.796875 677.660156 C 139.175781 677.054688 138.621094 676.394531 138.128906 675.679688 C 137.636719 674.964844 137.222656 674.207031 136.878906 673.410156 C 136.535156 672.613281 136.273438 671.792969 136.09375 670.941406 C 135.910156 670.09375 135.8125 669.238281 135.800781 668.371094 L 135.800781 259.164062 C 135.8125 258.296875 135.910156 257.4375 136.09375 256.589844 C 136.273438 255.742188 136.535156 254.917969 136.878906 254.121094 C 137.222656 253.324219 137.636719 252.570312 138.128906 251.855469 C 138.621094 251.140625 139.175781 250.476562 139.796875 249.871094 C 140.417969 249.265625 141.089844 248.726562 141.816406 248.25 C 142.542969 247.777344 143.308594 247.378906 144.113281 247.054688 C 144.917969 246.730469 145.746094 246.484375 146.597656 246.324219 C 147.449219 246.164062 148.308594 246.085938 149.175781 246.089844 L 303.382812 246.089844 L 380.691406 336.675781 C 381.488281 337.648438 382.449219 338.429688 383.5625 339.015625 C 384.679688 339.597656 385.867188 339.941406 387.125 340.042969 L 604.746094 363.125 L 647.433594 367.71875 Z M 661.835938 369.25 " fill-opacity="1" fill-rule="nonzero"/></g><path fill="#545454" d="M 168.886719 578.605469 L 310.632812 578.605469 C 311.304688 578.605469 311.96875 578.539062 312.625 578.40625 C 313.285156 578.277344 313.921875 578.082031 314.542969 577.828125 C 315.160156 577.570312 315.75 577.253906 316.308594 576.882812 C 316.863281 576.511719 317.382812 576.085938 317.855469 575.613281 C 318.328125 575.136719 318.753906 574.621094 319.125 574.066406 C 319.496094 573.507812 319.8125 572.917969 320.070312 572.300781 C 320.324219 571.679688 320.519531 571.042969 320.648438 570.382812 C 320.78125 569.726562 320.847656 569.0625 320.847656 568.390625 L 320.847656 526.417969 C 320.847656 525.75 320.78125 525.085938 320.648438 524.425781 C 320.519531 523.769531 320.324219 523.128906 320.070312 522.511719 C 319.8125 521.890625 319.496094 521.304688 319.125 520.746094 C 318.753906 520.1875 318.328125 519.671875 317.855469 519.199219 C 317.382812 518.722656 316.863281 518.300781 316.308594 517.925781 C 315.75 517.554688 315.160156 517.242188 314.542969 516.984375 C 313.921875 516.726562 313.285156 516.535156 312.625 516.402344 C 311.96875 516.273438 311.304688 516.207031 310.632812 516.207031 L 168.886719 516.207031 C 168.21875 516.207031 167.554688 516.273438 166.894531 516.402344 C 166.238281 516.535156 165.597656 516.726562 164.980469 516.984375 C 164.359375 517.242188 163.769531 517.554688 163.214844 517.925781 C 162.65625 518.300781 162.140625 518.722656 161.667969 519.199219 C 161.191406 519.671875 160.769531 520.1875 160.394531 520.746094 C 160.023438 521.304688 159.710938 521.890625 159.453125 522.511719 C 159.195312 523.128906 159.003906 523.769531 158.871094 524.425781 C 158.742188 525.085938 158.675781 525.75 158.675781 526.417969 L 158.675781 568.390625 C 158.675781 569.0625 158.742188 569.726562 158.871094 570.382812 C 159.003906 571.042969 159.195312 571.679688 159.453125 572.300781 C 159.710938 572.917969 160.023438 573.507812 160.394531 574.066406 C 160.769531 574.621094 161.191406 575.136719 161.667969 575.613281 C 162.140625 576.085938 162.65625 576.511719 163.214844 576.882812 C 163.769531 577.253906 164.359375 577.570312 164.980469 577.828125 C 165.597656 578.082031 166.238281 578.277344 166.894531 578.40625 C 167.554688 578.539062 168.21875 578.605469 168.886719 578.605469 Z M 179.101562 536.121094 L 300.726562 536.121094 L 300.726562 558.792969 L 178.792969 558.792969 Z M 179.101562 536.121094 " fill-opacity="1" fill-rule="nonzero"/><path fill="#545454" d="M 385.082031 595.148438 L 168.886719 595.148438 C 168.21875 595.148438 167.554688 595.214844 166.894531 595.34375 C 166.238281 595.476562 165.597656 595.667969 164.980469 595.925781 C 164.359375 596.179688 163.769531 596.496094 163.214844 596.867188 C 162.65625 597.242188 162.140625 597.664062 161.667969 598.140625 C 161.191406 598.613281 160.769531 599.128906 160.394531 599.6875 C 160.023438 600.242188 159.710938 600.832031 159.453125 601.453125 C 159.195312 602.070312 159.003906 602.710938 158.871094 603.367188 C 158.742188 604.023438 158.675781 604.6875 158.675781 605.359375 L 158.675781 647.84375 C 158.675781 648.511719 158.742188 649.175781 158.871094 649.835938 C 159.003906 650.492188 159.195312 651.132812 159.453125 651.75 C 159.710938 652.371094 160.023438 652.960938 160.394531 653.515625 C 160.769531 654.074219 161.191406 654.589844 161.667969 655.0625 C 162.140625 655.539062 162.65625 655.960938 163.214844 656.335938 C 163.769531 656.707031 164.359375 657.019531 164.980469 657.277344 C 165.597656 657.535156 166.238281 657.726562 166.894531 657.859375 C 167.554688 657.988281 168.21875 658.054688 168.886719 658.054688 L 385.082031 658.054688 C 385.753906 658.054688 386.417969 657.988281 387.074219 657.859375 C 387.730469 657.726562 388.371094 657.535156 388.988281 657.277344 C 389.609375 657.019531 390.199219 656.707031 390.753906 656.335938 C 391.3125 655.960938 391.828125 655.539062 392.300781 655.0625 C 392.777344 654.589844 393.199219 654.074219 393.574219 653.515625 C 393.945312 652.960938 394.257812 652.371094 394.515625 651.75 C 394.773438 651.132812 394.964844 650.492188 395.097656 649.835938 C 395.226562 649.175781 395.292969 648.511719 395.292969 647.84375 L 395.292969 604.953125 C 395.269531 604.296875 395.179688 603.652344 395.03125 603.015625 C 394.878906 602.382812 394.671875 601.765625 394.402344 601.167969 C 394.132812 600.574219 393.8125 600.007812 393.433594 599.472656 C 393.058594 598.9375 392.632812 598.445312 392.160156 597.992188 C 391.691406 597.539062 391.179688 597.136719 390.632812 596.78125 C 390.082031 596.425781 389.503906 596.128906 388.898438 595.882812 C 388.289062 595.640625 387.667969 595.457031 387.023438 595.332031 C 386.382812 595.207031 385.734375 595.148438 385.082031 595.148438 Z M 374.871094 637.527344 L 178.792969 637.527344 L 178.792969 614.855469 L 375.175781 614.855469 Z M 374.871094 637.527344 " fill-opacity="1" fill-rule="nonzero"/></svg>