<svg xmlns="http://www.w3.org/2000/svg" xmlns:xlink="http://www.w3.org/1999/xlink" width="1080" zoomAndPan="magnify" viewBox="0 0 810 809.999993" height="1080" preserveAspectRatio="xMidYMid meet" version="1.0"><defs><clipPath id="6e52328f4b"><path d="M 181.304688 121.5 L 629 121.5 L 629 688.5 L 181.304688 688.5 Z M 181.304688 121.5 " clip-rule="nonzero"/></clipPath></defs><g clip-path="url(#6e52328f4b)"><path fill="#545454" d="M 203.582031 635.882812 C 215.628906 646.746094 232.378906 656.3125 253.371094 664.320312 C 294.167969 679.882812 348.019531 688.453125 405.007812 688.453125 C 461.992188 688.453125 515.847656 679.882812 556.644531 664.320312 C 577.636719 656.3125 594.386719 646.746094 606.429688 635.882812 C 624.839844 619.28125 628.703125 602.632812 628.703125 591.589844 L 628.703125 467.191406 C 628.703125 466.835938 628.691406 466.488281 628.671875 466.136719 C 628.691406 465.582031 628.703125 465.03125 628.703125 464.496094 L 628.703125 221.085938 C 628.703125 220.730469 628.691406 220.378906 628.671875 220.03125 C 628.691406 219.472656 628.703125 218.921875 628.703125 218.390625 C 628.703125 207.351562 624.839844 190.699219 606.429688 174.101562 C 594.386719 163.238281 577.636719 153.671875 556.644531 145.664062 C 515.847656 130.101562 461.992188 121.53125 405.007812 121.53125 C 348.019531 121.53125 294.167969 130.101562 253.371094 145.664062 C 232.378906 153.671875 215.628906 163.238281 203.582031 174.097656 C 185.175781 190.699219 181.3125 207.347656 181.3125 218.390625 C 181.3125 218.921875 181.324219 219.472656 181.34375 220.03125 C 181.324219 220.378906 181.3125 220.730469 181.3125 221.082031 L 181.3125 464.496094 C 181.3125 465.03125 181.324219 465.582031 181.34375 466.136719 C 181.324219 466.488281 181.3125 466.835938 181.3125 467.191406 L 181.3125 591.589844 C 181.3125 602.636719 185.175781 619.28125 203.582031 635.882812 Z M 266.660156 180.507812 C 303.320312 166.523438 352.453125 158.820312 405.007812 158.820312 C 457.566406 158.820312 506.695312 166.523438 543.355469 180.507812 C 572.546875 191.640625 591.414062 206.511719 591.414062 218.390625 C 591.414062 230.269531 572.550781 245.140625 543.355469 256.273438 C 506.695312 270.257812 457.5625 277.957031 405.007812 277.957031 C 352.453125 277.957031 303.320312 270.257812 266.660156 256.273438 C 237.464844 245.140625 218.601562 230.269531 218.601562 218.390625 C 218.601562 206.511719 237.464844 191.644531 266.660156 180.507812 Z M 218.601562 340.097656 L 218.601562 274.023438 C 228.402344 280.304688 240.023438 286.027344 253.371094 291.121094 C 294.167969 306.679688 348.019531 315.25 405.007812 315.25 C 461.992188 315.25 515.847656 306.679688 556.644531 291.121094 C 569.992188 286.027344 581.613281 280.304688 591.410156 274.023438 L 591.410156 345.484375 C 591.410156 357.363281 572.546875 372.234375 543.355469 383.367188 C 506.695312 397.351562 457.5625 405.054688 405.007812 405.054688 C 352.449219 405.054688 303.320312 397.351562 266.660156 383.367188 C 237.464844 372.234375 218.601562 357.363281 218.601562 345.484375 Z M 218.601562 401.113281 C 228.402344 407.398438 240.023438 413.121094 253.371094 418.210938 C 294.167969 433.773438 348.019531 442.34375 405.007812 442.34375 C 461.992188 442.34375 515.847656 433.773438 556.644531 418.210938 C 569.992188 413.121094 581.613281 407.398438 591.410156 401.113281 L 591.410156 464.496094 C 591.410156 476.375 572.546875 491.246094 543.355469 502.382812 C 506.695312 516.367188 457.5625 524.066406 405.007812 524.066406 C 352.449219 524.066406 303.320312 516.363281 266.660156 502.382812 C 237.464844 491.246094 218.601562 476.375 218.601562 464.496094 Z M 218.601562 520.128906 C 228.402344 526.414062 240.023438 532.136719 253.371094 537.226562 C 294.167969 552.789062 348.019531 561.359375 405.007812 561.359375 C 461.992188 561.359375 515.847656 552.789062 556.644531 537.226562 C 569.992188 532.136719 581.613281 526.414062 591.410156 520.128906 L 591.410156 591.589844 C 591.410156 603.46875 572.546875 618.339844 543.355469 629.476562 C 506.695312 643.460938 457.5625 651.160156 405.007812 651.160156 C 352.449219 651.160156 303.320312 643.457031 266.660156 629.476562 C 237.464844 618.339844 218.601562 603.46875 218.601562 591.589844 Z M 218.601562 520.128906 " fill-opacity="1" fill-rule="nonzero"/></g></svg>