<svg xmlns="http://www.w3.org/2000/svg" xmlns:xlink="http://www.w3.org/1999/xlink" width="1080" zoomAndPan="magnify" viewBox="0 0 810 809.999993" height="1080" preserveAspectRatio="xMidYMid meet" version="1.0"><defs><clipPath id="fa50d0d96b"><path d="M 139.621094 110.136719 L 670.621094 110.136719 L 670.621094 699.636719 L 139.621094 699.636719 Z M 139.621094 110.136719 " clip-rule="nonzero"/></clipPath><clipPath id="9ea9eb0184"><path d="M 139.621094 532 L 160 532 L 160 553 L 139.621094 553 Z M 139.621094 532 " clip-rule="nonzero"/></clipPath></defs><path fill="#545454" d="M 208.421875 395.105469 L 247.738281 395.105469 C 248.382812 395.105469 249.023438 395.074219 249.664062 395.011719 C 250.304688 394.949219 250.941406 394.855469 251.574219 394.730469 C 252.207031 394.605469 252.828125 394.449219 253.445312 394.261719 C 254.0625 394.074219 254.667969 393.855469 255.261719 393.609375 C 255.855469 393.363281 256.4375 393.089844 257.003906 392.785156 C 257.574219 392.484375 258.125 392.152344 258.660156 391.792969 C 259.195312 391.4375 259.710938 391.054688 260.210938 390.644531 C 260.707031 390.238281 261.183594 389.804688 261.640625 389.347656 C 262.09375 388.894531 262.527344 388.417969 262.933594 387.921875 C 263.34375 387.421875 263.726562 386.90625 264.082031 386.371094 C 264.441406 385.835938 264.773438 385.285156 265.074219 384.714844 C 265.378906 384.148438 265.652344 383.566406 265.898438 382.972656 C 266.144531 382.378906 266.363281 381.773438 266.550781 381.15625 C 266.738281 380.539062 266.894531 379.914062 267.019531 379.285156 C 267.144531 378.652344 267.238281 378.015625 267.300781 377.375 C 267.363281 376.734375 267.394531 376.09375 267.394531 375.449219 L 267.394531 336.132812 C 267.394531 335.492188 267.363281 334.847656 267.300781 334.207031 C 267.238281 333.566406 267.144531 332.929688 267.019531 332.300781 C 266.894531 331.667969 266.738281 331.042969 266.550781 330.429688 C 266.363281 329.8125 266.144531 329.207031 265.898438 328.613281 C 265.652344 328.015625 265.378906 327.4375 265.074219 326.867188 C 264.773438 326.300781 264.441406 325.75 264.082031 325.214844 C 263.726562 324.679688 263.34375 324.160156 262.933594 323.664062 C 262.527344 323.167969 262.09375 322.691406 261.640625 322.234375 C 261.183594 321.777344 260.707031 321.347656 260.210938 320.9375 C 259.710938 320.53125 259.195312 320.148438 258.660156 319.789062 C 258.125 319.433594 257.574219 319.101562 257.003906 318.796875 C 256.4375 318.496094 255.855469 318.21875 255.261719 317.972656 C 254.667969 317.726562 254.0625 317.511719 253.445312 317.324219 C 252.828125 317.136719 252.207031 316.980469 251.574219 316.855469 C 250.941406 316.730469 250.304688 316.632812 249.664062 316.570312 C 249.023438 316.507812 248.382812 316.476562 247.738281 316.476562 L 208.421875 316.476562 C 207.78125 316.476562 207.136719 316.507812 206.496094 316.570312 C 205.855469 316.632812 205.21875 316.730469 204.589844 316.855469 C 203.957031 316.980469 203.332031 317.136719 202.71875 317.324219 C 202.101562 317.511719 201.496094 317.726562 200.902344 317.972656 C 200.304688 318.21875 199.726562 318.496094 199.15625 318.796875 C 198.589844 319.101562 198.039062 319.433594 197.503906 319.789062 C 196.96875 320.148438 196.449219 320.53125 195.953125 320.9375 C 195.457031 321.347656 194.980469 321.777344 194.523438 322.234375 C 194.070312 322.691406 193.636719 323.167969 193.226562 323.664062 C 192.820312 324.160156 192.4375 324.679688 192.078125 325.214844 C 191.722656 325.75 191.390625 326.300781 191.085938 326.867188 C 190.785156 327.4375 190.507812 328.015625 190.261719 328.613281 C 190.015625 329.207031 189.800781 329.8125 189.613281 330.429688 C 189.425781 331.042969 189.269531 331.667969 189.144531 332.300781 C 189.019531 332.929688 188.925781 333.566406 188.859375 334.207031 C 188.796875 334.847656 188.765625 335.492188 188.765625 336.132812 L 188.765625 375.449219 C 188.765625 376.09375 188.796875 376.734375 188.859375 377.375 C 188.925781 378.015625 189.019531 378.652344 189.144531 379.285156 C 189.269531 379.914062 189.425781 380.539062 189.613281 381.15625 C 189.800781 381.773438 190.015625 382.378906 190.261719 382.972656 C 190.507812 383.566406 190.785156 384.148438 191.085938 384.714844 C 191.390625 385.285156 191.722656 385.835938 192.078125 386.371094 C 192.4375 386.90625 192.820312 387.421875 193.226562 387.921875 C 193.636719 388.417969 194.070312 388.894531 194.523438 389.347656 C 194.980469 389.804688 195.457031 390.238281 195.953125 390.644531 C 196.449219 391.054688 196.96875 391.4375 197.503906 391.792969 C 198.039062 392.152344 198.589844 392.480469 199.15625 392.785156 C 199.726562 393.089844 200.304688 393.363281 200.902344 393.609375 C 201.496094 393.855469 202.101562 394.074219 202.71875 394.261719 C 203.332031 394.449219 203.957031 394.605469 204.589844 394.730469 C 205.21875 394.855469 205.855469 394.949219 206.496094 395.011719 C 207.136719 395.074219 207.78125 395.105469 208.421875 395.105469 Z M 208.421875 336.132812 L 247.738281 336.132812 L 247.738281 375.449219 L 208.421875 375.449219 Z M 208.421875 336.132812 " fill-opacity="1" fill-rule="nonzero"/><path fill="#545454" d="M 326.367188 395.105469 L 365.683594 395.105469 C 366.328125 395.105469 366.96875 395.074219 367.609375 395.011719 C 368.25 394.949219 368.886719 394.855469 369.519531 394.730469 C 370.152344 394.605469 370.773438 394.449219 371.390625 394.261719 C 372.007812 394.074219 372.613281 393.855469 373.207031 393.609375 C 373.800781 393.363281 374.382812 393.089844 374.949219 392.785156 C 375.519531 392.484375 376.070312 392.152344 376.605469 391.792969 C 377.140625 391.4375 377.65625 391.054688 378.15625 390.644531 C 378.652344 390.238281 379.128906 389.804688 379.585938 389.347656 C 380.039062 388.894531 380.472656 388.417969 380.878906 387.921875 C 381.289062 387.421875 381.671875 386.90625 382.027344 386.371094 C 382.386719 385.835938 382.71875 385.285156 383.019531 384.714844 C 383.324219 384.148438 383.597656 383.566406 383.84375 382.972656 C 384.089844 382.378906 384.308594 381.773438 384.496094 381.15625 C 384.683594 380.539062 384.839844 379.914062 384.964844 379.285156 C 385.089844 378.652344 385.183594 378.015625 385.246094 377.375 C 385.308594 376.734375 385.339844 376.09375 385.339844 375.449219 L 385.339844 336.132812 C 385.339844 335.492188 385.308594 334.847656 385.246094 334.207031 C 385.183594 333.566406 385.089844 332.929688 384.964844 332.300781 C 384.839844 331.667969 384.683594 331.042969 384.496094 330.429688 C 384.308594 329.8125 384.089844 329.207031 383.84375 328.613281 C 383.597656 328.015625 383.324219 327.4375 383.019531 326.867188 C 382.71875 326.300781 382.386719 325.75 382.027344 325.214844 C 381.671875 324.679688 381.289062 324.160156 380.878906 323.664062 C 380.472656 323.167969 380.039062 322.691406 379.585938 322.234375 C 379.128906 321.777344 378.652344 321.347656 378.15625 320.9375 C 377.65625 320.53125 377.140625 320.148438 376.605469 319.789062 C 376.070312 319.433594 375.519531 319.101562 374.949219 318.796875 C 374.382812 318.496094 373.800781 318.21875 373.207031 317.972656 C 372.613281 317.726562 372.007812 317.511719 371.390625 317.324219 C 370.773438 317.136719 370.152344 316.980469 369.519531 316.855469 C 368.886719 316.730469 368.25 316.632812 367.609375 316.570312 C 366.96875 316.507812 366.328125 316.476562 365.683594 316.476562 L 326.367188 316.476562 C 325.726562 316.476562 325.082031 316.507812 324.441406 316.570312 C 323.800781 316.632812 323.164062 316.730469 322.535156 316.855469 C 321.902344 316.980469 321.277344 317.136719 320.664062 317.324219 C 320.046875 317.511719 319.441406 317.726562 318.847656 317.972656 C 318.25 318.21875 317.671875 318.496094 317.101562 318.796875 C 316.535156 319.101562 315.984375 319.433594 315.449219 319.789062 C 314.914062 320.148438 314.394531 320.53125 313.898438 320.9375 C 313.402344 321.347656 312.925781 321.777344 312.46875 322.234375 C 312.015625 322.691406 311.582031 323.167969 311.171875 323.664062 C 310.765625 324.160156 310.382812 324.679688 310.023438 325.214844 C 309.667969 325.75 309.335938 326.300781 309.03125 326.867188 C 308.730469 327.4375 308.453125 328.015625 308.207031 328.613281 C 307.960938 329.207031 307.746094 329.8125 307.558594 330.429688 C 307.371094 331.042969 307.214844 331.667969 307.089844 332.300781 C 306.964844 332.929688 306.871094 333.566406 306.804688 334.207031 C 306.742188 334.847656 306.710938 335.492188 306.710938 336.132812 L 306.710938 375.449219 C 306.710938 376.09375 306.742188 376.734375 306.804688 377.375 C 306.871094 378.015625 306.964844 378.652344 307.089844 379.285156 C 307.214844 379.914062 307.371094 380.539062 307.558594 381.15625 C 307.746094 381.773438 307.960938 382.378906 308.207031 382.972656 C 308.453125 383.566406 308.730469 384.148438 309.03125 384.714844 C 309.335938 385.285156 309.667969 385.835938 310.023438 386.371094 C 310.382812 386.90625 310.765625 387.421875 311.171875 387.921875 C 311.582031 388.417969 312.015625 388.894531 312.46875 389.347656 C 312.925781 389.804688 313.402344 390.238281 313.898438 390.644531 C 314.394531 391.054688 314.914062 391.4375 315.449219 391.792969 C 315.984375 392.152344 316.535156 392.480469 317.101562 392.785156 C 317.671875 393.089844 318.25 393.363281 318.847656 393.609375 C 319.441406 393.855469 320.046875 394.074219 320.664062 394.261719 C 321.277344 394.449219 321.902344 394.605469 322.535156 394.730469 C 323.164062 394.855469 323.800781 394.949219 324.441406 395.011719 C 325.082031 395.074219 325.726562 395.105469 326.367188 395.105469 Z M 326.367188 336.132812 L 365.683594 336.132812 L 365.683594 375.449219 L 326.367188 375.449219 Z M 326.367188 336.132812 " fill-opacity="1" fill-rule="nonzero"/><path fill="#545454" d="M 444.3125 395.105469 L 483.628906 395.105469 C 484.273438 395.105469 484.914062 395.074219 485.554688 395.011719 C 486.195312 394.949219 486.832031 394.855469 487.464844 394.730469 C 488.097656 394.605469 488.71875 394.449219 489.335938 394.261719 C 489.953125 394.074219 490.558594 393.855469 491.152344 393.609375 C 491.746094 393.363281 492.328125 393.089844 492.894531 392.785156 C 493.464844 392.484375 494.015625 392.152344 494.550781 391.792969 C 495.085938 391.4375 495.601562 391.054688 496.101562 390.644531 C 496.597656 390.238281 497.074219 389.804688 497.53125 389.347656 C 497.984375 388.894531 498.417969 388.417969 498.824219 387.921875 C 499.234375 387.421875 499.617188 386.90625 499.972656 386.371094 C 500.332031 385.835938 500.664062 385.285156 500.964844 384.714844 C 501.269531 384.148438 501.542969 383.566406 501.789062 382.972656 C 502.035156 382.378906 502.253906 381.773438 502.441406 381.15625 C 502.628906 380.539062 502.785156 379.914062 502.910156 379.285156 C 503.035156 378.652344 503.128906 378.015625 503.191406 377.375 C 503.253906 376.734375 503.285156 376.09375 503.285156 375.449219 L 503.285156 336.132812 C 503.285156 335.492188 503.253906 334.847656 503.191406 334.207031 C 503.128906 333.566406 503.035156 332.929688 502.910156 332.300781 C 502.785156 331.667969 502.628906 331.042969 502.441406 330.429688 C 502.253906 329.8125 502.035156 329.207031 501.789062 328.613281 C 501.542969 328.015625 501.269531 327.4375 500.964844 326.867188 C 500.664062 326.300781 500.332031 325.75 499.972656 325.214844 C 499.617188 324.679688 499.234375 324.160156 498.824219 323.664062 C 498.417969 323.167969 497.984375 322.691406 497.53125 322.234375 C 497.074219 321.777344 496.597656 321.347656 496.101562 320.9375 C 495.601562 320.53125 495.085938 320.148438 494.550781 319.789062 C 494.015625 319.433594 493.464844 319.101562 492.894531 318.796875 C 492.328125 318.496094 491.746094 318.21875 491.152344 317.972656 C 490.558594 317.726562 489.953125 317.511719 489.335938 317.324219 C 488.71875 317.136719 488.097656 316.980469 487.464844 316.855469 C 486.832031 316.730469 486.195312 316.632812 485.554688 316.570312 C 484.914062 316.507812 484.273438 316.476562 483.628906 316.476562 L 444.3125 316.476562 C 443.671875 316.476562 443.027344 316.507812 442.386719 316.570312 C 441.746094 316.632812 441.109375 316.730469 440.480469 316.855469 C 439.847656 316.980469 439.222656 317.136719 438.609375 317.324219 C 437.992188 317.511719 437.386719 317.726562 436.792969 317.972656 C 436.195312 318.21875 435.617188 318.496094 435.046875 318.796875 C 434.480469 319.101562 433.929688 319.433594 433.394531 319.789062 C 432.859375 320.148438 432.339844 320.53125 431.84375 320.9375 C 431.347656 321.347656 430.871094 321.777344 430.414062 322.234375 C 429.960938 322.691406 429.527344 323.167969 429.117188 323.664062 C 428.710938 324.160156 428.328125 324.679688 427.96875 325.214844 C 427.613281 325.75 427.28125 326.300781 426.976562 326.867188 C 426.675781 327.4375 426.398438 328.015625 426.152344 328.613281 C 425.90625 329.207031 425.691406 329.8125 425.503906 330.429688 C 425.316406 331.042969 425.160156 331.667969 425.035156 332.300781 C 424.910156 332.929688 424.816406 333.566406 424.75 334.207031 C 424.6875 334.847656 424.65625 335.492188 424.65625 336.132812 L 424.65625 375.449219 C 424.65625 376.09375 424.6875 376.734375 424.75 377.375 C 424.816406 378.015625 424.910156 378.652344 425.035156 379.285156 C 425.160156 379.914062 425.316406 380.539062 425.503906 381.15625 C 425.691406 381.773438 425.90625 382.378906 426.152344 382.972656 C 426.398438 383.566406 426.675781 384.148438 426.976562 384.714844 C 427.28125 385.285156 427.613281 385.835938 427.96875 386.371094 C 428.328125 386.90625 428.710938 387.421875 429.117188 387.921875 C 429.527344 388.417969 429.960938 388.894531 430.414062 389.347656 C 430.871094 389.804688 431.347656 390.238281 431.84375 390.644531 C 432.339844 391.054688 432.859375 391.4375 433.394531 391.792969 C 433.929688 392.152344 434.480469 392.480469 435.046875 392.785156 C 435.617188 393.089844 436.195312 393.363281 436.792969 393.609375 C 437.386719 393.855469 437.992188 394.074219 438.609375 394.261719 C 439.222656 394.449219 439.847656 394.605469 440.480469 394.730469 C 441.109375 394.855469 441.746094 394.949219 442.386719 395.011719 C 443.027344 395.074219 443.671875 395.105469 444.3125 395.105469 Z M 444.3125 336.132812 L 483.628906 336.132812 L 483.628906 375.449219 L 444.3125 375.449219 Z M 444.3125 336.132812 " fill-opacity="1" fill-rule="nonzero"/><path fill="#545454" d="M 562.257812 395.105469 L 601.574219 395.105469 C 602.21875 395.105469 602.859375 395.074219 603.5 395.011719 C 604.140625 394.949219 604.777344 394.855469 605.410156 394.730469 C 606.042969 394.605469 606.664062 394.449219 607.28125 394.261719 C 607.898438 394.074219 608.503906 393.855469 609.097656 393.609375 C 609.691406 393.363281 610.273438 393.089844 610.839844 392.785156 C 611.410156 392.484375 611.960938 392.152344 612.496094 391.792969 C 613.03125 391.4375 613.546875 391.054688 614.046875 390.644531 C 614.542969 390.238281 615.019531 389.804688 615.476562 389.347656 C 615.929688 388.894531 616.363281 388.417969 616.769531 387.921875 C 617.179688 387.421875 617.5625 386.90625 617.917969 386.371094 C 618.277344 385.835938 618.609375 385.285156 618.910156 384.714844 C 619.214844 384.148438 619.488281 383.566406 619.734375 382.972656 C 619.980469 382.378906 620.199219 381.773438 620.386719 381.15625 C 620.574219 380.539062 620.730469 379.914062 620.855469 379.285156 C 620.980469 378.652344 621.074219 378.015625 621.136719 377.375 C 621.199219 376.734375 621.230469 376.09375 621.230469 375.449219 L 621.230469 336.132812 C 621.230469 335.492188 621.199219 334.847656 621.136719 334.207031 C 621.074219 333.566406 620.980469 332.929688 620.855469 332.300781 C 620.730469 331.667969 620.574219 331.042969 620.386719 330.429688 C 620.199219 329.8125 619.980469 329.207031 619.734375 328.613281 C 619.488281 328.015625 619.214844 327.4375 618.910156 326.867188 C 618.609375 326.300781 618.277344 325.75 617.917969 325.214844 C 617.5625 324.679688 617.179688 324.160156 616.769531 323.664062 C 616.363281 323.167969 615.929688 322.691406 615.476562 322.234375 C 615.019531 321.777344 614.542969 321.347656 614.046875 320.9375 C 613.546875 320.53125 613.03125 320.148438 612.496094 319.789062 C 611.960938 319.433594 611.410156 319.101562 610.839844 318.796875 C 610.273438 318.496094 609.691406 318.21875 609.097656 317.972656 C 608.503906 317.726562 607.898438 317.511719 607.28125 317.324219 C 606.664062 317.136719 606.042969 316.980469 605.410156 316.855469 C 604.777344 316.730469 604.140625 316.632812 603.5 316.570312 C 602.859375 316.507812 602.21875 316.476562 601.574219 316.476562 L 562.257812 316.476562 C 561.617188 316.476562 560.972656 316.507812 560.332031 316.570312 C 559.691406 316.632812 559.054688 316.730469 558.425781 316.855469 C 557.792969 316.980469 557.167969 317.136719 556.554688 317.324219 C 555.9375 317.511719 555.332031 317.726562 554.738281 317.972656 C 554.140625 318.21875 553.5625 318.496094 552.992188 318.796875 C 552.425781 319.101562 551.875 319.433594 551.339844 319.789062 C 550.804688 320.148438 550.285156 320.53125 549.789062 320.9375 C 549.292969 321.347656 548.816406 321.777344 548.359375 322.234375 C 547.90625 322.691406 547.472656 323.167969 547.0625 323.664062 C 546.65625 324.160156 546.273438 324.679688 545.914062 325.214844 C 545.558594 325.75 545.226562 326.300781 544.921875 326.867188 C 544.621094 327.4375 544.34375 328.015625 544.097656 328.613281 C 543.851562 329.207031 543.636719 329.8125 543.449219 330.429688 C 543.261719 331.042969 543.105469 331.667969 542.980469 332.300781 C 542.855469 332.929688 542.761719 333.566406 542.695312 334.207031 C 542.632812 334.847656 542.601562 335.492188 542.601562 336.132812 L 542.601562 375.449219 C 542.601562 376.09375 542.632812 376.734375 542.695312 377.375 C 542.761719 378.015625 542.855469 378.652344 542.980469 379.285156 C 543.105469 379.914062 543.261719 380.539062 543.449219 381.15625 C 543.636719 381.773438 543.851562 382.378906 544.097656 382.972656 C 544.34375 383.566406 544.621094 384.148438 544.921875 384.714844 C 545.226562 385.285156 545.558594 385.835938 545.914062 386.371094 C 546.273438 386.90625 546.65625 387.421875 547.0625 387.921875 C 547.472656 388.417969 547.90625 388.894531 548.359375 389.347656 C 548.816406 389.804688 549.292969 390.238281 549.789062 390.644531 C 550.285156 391.054688 550.804688 391.4375 551.339844 391.792969 C 551.875 392.152344 552.425781 392.480469 552.992188 392.785156 C 553.5625 393.089844 554.140625 393.363281 554.738281 393.609375 C 555.332031 393.855469 555.9375 394.074219 556.554688 394.261719 C 557.167969 394.449219 557.792969 394.605469 558.425781 394.730469 C 559.054688 394.855469 559.691406 394.949219 560.332031 395.011719 C 560.972656 395.074219 561.617188 395.105469 562.257812 395.105469 Z M 562.257812 336.132812 L 601.574219 336.132812 L 601.574219 375.449219 L 562.257812 375.449219 Z M 562.257812 336.132812 " fill-opacity="1" fill-rule="nonzero"/><path fill="#545454" d="M 188.765625 483.566406 C 188.765625 484.210938 188.796875 484.851562 188.859375 485.492188 C 188.925781 486.132812 189.019531 486.769531 189.144531 487.402344 C 189.269531 488.03125 189.425781 488.65625 189.613281 489.273438 C 189.800781 489.886719 190.015625 490.492188 190.261719 491.089844 C 190.507812 491.683594 190.785156 492.265625 191.085938 492.832031 C 191.390625 493.398438 191.722656 493.953125 192.078125 494.488281 C 192.4375 495.023438 192.820312 495.539062 193.226562 496.035156 C 193.636719 496.535156 194.070312 497.011719 194.523438 497.464844 C 194.980469 497.921875 195.457031 498.351562 195.953125 498.761719 C 196.449219 499.171875 196.96875 499.554688 197.503906 499.910156 C 198.039062 500.269531 198.589844 500.597656 199.15625 500.902344 C 199.726562 501.207031 200.304688 501.480469 200.902344 501.726562 C 201.496094 501.972656 202.101562 502.191406 202.71875 502.378906 C 203.332031 502.5625 203.957031 502.71875 204.589844 502.847656 C 205.21875 502.972656 205.855469 503.066406 206.496094 503.128906 C 207.136719 503.191406 207.78125 503.222656 208.421875 503.222656 L 247.738281 503.222656 C 248.382812 503.222656 249.023438 503.191406 249.664062 503.128906 C 250.304688 503.066406 250.941406 502.972656 251.574219 502.847656 C 252.207031 502.71875 252.828125 502.5625 253.445312 502.378906 C 254.0625 502.191406 254.667969 501.972656 255.261719 501.726562 C 255.855469 501.480469 256.4375 501.207031 257.003906 500.902344 C 257.574219 500.597656 258.125 500.269531 258.660156 499.910156 C 259.195312 499.554688 259.710938 499.171875 260.210938 498.761719 C 260.707031 498.351562 261.183594 497.921875 261.640625 497.464844 C 262.09375 497.011719 262.527344 496.535156 262.933594 496.035156 C 263.34375 495.539062 263.726562 495.023438 264.082031 494.488281 C 264.441406 493.953125 264.773438 493.398438 265.074219 492.832031 C 265.378906 492.265625 265.652344 491.683594 265.898438 491.089844 C 266.144531 490.492188 266.363281 489.886719 266.550781 489.273438 C 266.738281 488.65625 266.894531 488.03125 267.019531 487.402344 C 267.144531 486.769531 267.238281 486.132812 267.300781 485.492188 C 267.363281 484.851562 267.394531 484.210938 267.394531 483.566406 L 267.394531 444.25 C 267.394531 443.605469 267.363281 442.964844 267.300781 442.324219 C 267.238281 441.683594 267.144531 441.046875 267.019531 440.414062 C 266.894531 439.785156 266.738281 439.160156 266.550781 438.542969 C 266.363281 437.929688 266.144531 437.324219 265.898438 436.726562 C 265.652344 436.132812 265.378906 435.550781 265.074219 434.984375 C 264.773438 434.417969 264.441406 433.863281 264.082031 433.328125 C 263.726562 432.792969 263.34375 432.277344 262.933594 431.78125 C 262.527344 431.28125 262.09375 430.804688 261.640625 430.351562 C 261.183594 429.894531 260.707031 429.464844 260.210938 429.054688 C 259.710938 428.648438 259.195312 428.265625 258.660156 427.90625 C 258.125 427.546875 257.574219 427.21875 257.003906 426.914062 C 256.4375 426.609375 255.855469 426.335938 255.261719 426.089844 C 254.667969 425.84375 254.0625 425.625 253.445312 425.441406 C 252.828125 425.253906 252.207031 425.097656 251.574219 424.972656 C 250.941406 424.84375 250.304688 424.75 249.664062 424.6875 C 249.023438 424.625 248.382812 424.59375 247.738281 424.59375 L 208.421875 424.59375 C 207.78125 424.59375 207.136719 424.625 206.496094 424.6875 C 205.855469 424.75 205.21875 424.84375 204.589844 424.972656 C 203.957031 425.097656 203.332031 425.253906 202.71875 425.441406 C 202.101562 425.625 201.496094 425.84375 200.902344 426.089844 C 200.304688 426.335938 199.726562 426.609375 199.15625 426.914062 C 198.589844 427.21875 198.039062 427.546875 197.503906 427.90625 C 196.96875 428.265625 196.449219 428.648438 195.953125 429.054688 C 195.457031 429.464844 194.980469 429.894531 194.523438 430.351562 C 194.070312 430.804688 193.636719 431.28125 193.226562 431.78125 C 192.820312 432.277344 192.4375 432.792969 192.078125 433.328125 C 191.722656 433.863281 191.390625 434.417969 191.085938 434.984375 C 190.785156 435.550781 190.507812 436.132812 190.261719 436.726562 C 190.015625 437.324219 189.800781 437.929688 189.613281 438.542969 C 189.425781 439.160156 189.269531 439.785156 189.144531 440.414062 C 189.019531 441.046875 188.925781 441.683594 188.859375 442.324219 C 188.796875 442.964844 188.765625 443.605469 188.765625 444.25 Z M 208.421875 444.25 L 247.738281 444.25 L 247.738281 483.566406 L 208.421875 483.566406 Z M 208.421875 444.25 " fill-opacity="1" fill-rule="nonzero"/><path fill="#545454" d="M 306.710938 478.652344 C 306.710938 479.296875 306.742188 479.9375 306.804688 480.578125 C 306.871094 481.21875 306.964844 481.855469 307.089844 482.488281 C 307.214844 483.117188 307.371094 483.742188 307.558594 484.359375 C 307.746094 484.972656 307.960938 485.578125 308.207031 486.175781 C 308.453125 486.769531 308.730469 487.351562 309.03125 487.917969 C 309.335938 488.484375 309.667969 489.039062 310.023438 489.574219 C 310.382812 490.109375 310.765625 490.625 311.171875 491.121094 C 311.582031 491.621094 312.015625 492.097656 312.46875 492.550781 C 312.925781 493.007812 313.402344 493.4375 313.898438 493.847656 C 314.394531 494.253906 314.914062 494.640625 315.449219 494.996094 C 315.984375 495.355469 316.535156 495.683594 317.101562 495.988281 C 317.671875 496.292969 318.25 496.566406 318.847656 496.8125 C 319.441406 497.058594 320.046875 497.277344 320.664062 497.460938 C 321.277344 497.648438 321.902344 497.804688 322.535156 497.929688 C 323.164062 498.058594 323.800781 498.152344 324.441406 498.214844 C 325.082031 498.277344 325.726562 498.308594 326.367188 498.308594 L 365.683594 498.308594 C 366.328125 498.308594 366.96875 498.277344 367.609375 498.214844 C 368.25 498.152344 368.886719 498.058594 369.519531 497.929688 C 370.152344 497.804688 370.773438 497.648438 371.390625 497.460938 C 372.007812 497.277344 372.613281 497.058594 373.207031 496.8125 C 373.800781 496.566406 374.382812 496.292969 374.949219 495.988281 C 375.519531 495.683594 376.070312 495.355469 376.605469 494.996094 C 377.140625 494.640625 377.65625 494.253906 378.15625 493.847656 C 378.652344 493.4375 379.128906 493.007812 379.585938 492.550781 C 380.039062 492.097656 380.472656 491.621094 380.878906 491.121094 C 381.289062 490.625 381.671875 490.109375 382.027344 489.574219 C 382.386719 489.039062 382.71875 488.484375 383.019531 487.917969 C 383.324219 487.351562 383.597656 486.769531 383.84375 486.175781 C 384.089844 485.578125 384.308594 484.972656 384.496094 484.359375 C 384.683594 483.742188 384.839844 483.117188 384.964844 482.488281 C 385.089844 481.855469 385.183594 481.21875 385.246094 480.578125 C 385.308594 479.9375 385.339844 479.296875 385.339844 478.652344 L 385.339844 439.335938 C 385.339844 438.691406 385.308594 438.050781 385.246094 437.410156 C 385.183594 436.769531 385.089844 436.132812 384.964844 435.5 C 384.839844 434.871094 384.683594 434.246094 384.496094 433.628906 C 384.308594 433.015625 384.089844 432.410156 383.84375 431.8125 C 383.597656 431.21875 383.324219 430.636719 383.019531 430.070312 C 382.71875 429.503906 382.386719 428.949219 382.027344 428.414062 C 381.671875 427.878906 381.289062 427.363281 380.878906 426.867188 C 380.472656 426.367188 380.039062 425.890625 379.585938 425.4375 C 379.128906 424.980469 378.652344 424.550781 378.15625 424.140625 C 377.65625 423.734375 377.140625 423.347656 376.605469 422.992188 C 376.070312 422.632812 375.519531 422.304688 374.949219 422 C 374.382812 421.695312 373.800781 421.421875 373.207031 421.175781 C 372.613281 420.929688 372.007812 420.710938 371.390625 420.527344 C 370.773438 420.339844 370.152344 420.183594 369.519531 420.058594 C 368.886719 419.929688 368.25 419.835938 367.609375 419.773438 C 366.96875 419.710938 366.328125 419.679688 365.683594 419.679688 L 326.367188 419.679688 C 325.726562 419.679688 325.082031 419.710938 324.441406 419.773438 C 323.800781 419.835938 323.164062 419.929688 322.535156 420.058594 C 321.902344 420.183594 321.277344 420.339844 320.664062 420.527344 C 320.046875 420.710938 319.441406 420.929688 318.847656 421.175781 C 318.25 421.421875 317.671875 421.695312 317.101562 422 C 316.535156 422.304688 315.984375 422.632812 315.449219 422.992188 C 314.914062 423.347656 314.394531 423.734375 313.898438 424.140625 C 313.402344 424.550781 312.925781 424.980469 312.46875 425.4375 C 312.015625 425.890625 311.582031 426.367188 311.171875 426.867188 C 310.765625 427.363281 310.382812 427.878906 310.023438 428.414062 C 309.667969 428.949219 309.335938 429.503906 309.03125 430.070312 C 308.730469 430.636719 308.453125 431.21875 308.207031 431.8125 C 307.960938 432.410156 307.746094 433.015625 307.558594 433.628906 C 307.371094 434.246094 307.214844 434.871094 307.089844 435.5 C 306.964844 436.132812 306.871094 436.769531 306.804688 437.410156 C 306.742188 438.050781 306.710938 438.691406 306.710938 439.335938 Z M 326.367188 439.335938 L 365.683594 439.335938 L 365.683594 478.652344 L 326.367188 478.652344 Z M 326.367188 439.335938 " fill-opacity="1" fill-rule="nonzero"/><path fill="#545454" d="M 424.65625 478.652344 C 424.65625 479.296875 424.6875 479.9375 424.75 480.578125 C 424.816406 481.21875 424.910156 481.855469 425.035156 482.488281 C 425.160156 483.117188 425.316406 483.742188 425.503906 484.359375 C 425.691406 484.972656 425.90625 485.578125 426.152344 486.175781 C 426.398438 486.769531 426.675781 487.351562 426.976562 487.917969 C 427.28125 488.484375 427.613281 489.039062 427.96875 489.574219 C 428.328125 490.109375 428.710938 490.625 429.117188 491.121094 C 429.527344 491.621094 429.960938 492.097656 430.414062 492.550781 C 430.871094 493.007812 431.347656 493.4375 431.84375 493.847656 C 432.339844 494.253906 432.859375 494.640625 433.394531 494.996094 C 433.929688 495.355469 434.480469 495.683594 435.046875 495.988281 C 435.617188 496.292969 436.195312 496.566406 436.792969 496.8125 C 437.386719 497.058594 437.992188 497.277344 438.609375 497.460938 C 439.222656 497.648438 439.847656 497.804688 440.480469 497.929688 C 441.109375 498.058594 441.746094 498.152344 442.386719 498.214844 C 443.027344 498.277344 443.671875 498.308594 444.3125 498.308594 L 483.628906 498.308594 C 484.273438 498.308594 484.914062 498.277344 485.554688 498.214844 C 486.195312 498.152344 486.832031 498.058594 487.464844 497.929688 C 488.097656 497.804688 488.71875 497.648438 489.335938 497.460938 C 489.953125 497.277344 490.558594 497.058594 491.152344 496.8125 C 491.746094 496.566406 492.328125 496.292969 492.894531 495.988281 C 493.464844 495.683594 494.015625 495.355469 494.550781 494.996094 C 495.085938 494.640625 495.601562 494.253906 496.101562 493.847656 C 496.597656 493.4375 497.074219 493.007812 497.53125 492.550781 C 497.984375 492.097656 498.417969 491.621094 498.824219 491.121094 C 499.234375 490.625 499.617188 490.109375 499.972656 489.574219 C 500.332031 489.039062 500.664062 488.484375 500.964844 487.917969 C 501.269531 487.351562 501.542969 486.769531 501.789062 486.175781 C 502.035156 485.578125 502.253906 484.972656 502.441406 484.359375 C 502.628906 483.742188 502.785156 483.117188 502.910156 482.488281 C 503.035156 481.855469 503.128906 481.21875 503.191406 480.578125 C 503.253906 479.9375 503.285156 479.296875 503.285156 478.652344 L 503.285156 439.335938 C 503.285156 438.691406 503.253906 438.050781 503.191406 437.410156 C 503.128906 436.769531 503.035156 436.132812 502.910156 435.5 C 502.785156 434.871094 502.628906 434.246094 502.441406 433.628906 C 502.253906 433.015625 502.035156 432.410156 501.789062 431.8125 C 501.542969 431.21875 501.269531 430.636719 500.964844 430.070312 C 500.664062 429.503906 500.332031 428.949219 499.972656 428.414062 C 499.617188 427.878906 499.234375 427.363281 498.824219 426.867188 C 498.417969 426.367188 497.984375 425.890625 497.53125 425.4375 C 497.074219 424.980469 496.597656 424.550781 496.101562 424.140625 C 495.601562 423.734375 495.085938 423.347656 494.550781 422.992188 C 494.015625 422.632812 493.464844 422.304688 492.894531 422 C 492.328125 421.695312 491.746094 421.421875 491.152344 421.175781 C 490.558594 420.929688 489.953125 420.710938 489.335938 420.527344 C 488.71875 420.339844 488.097656 420.183594 487.464844 420.058594 C 486.832031 419.929688 486.195312 419.835938 485.554688 419.773438 C 484.914062 419.710938 484.273438 419.679688 483.628906 419.679688 L 444.3125 419.679688 C 443.671875 419.679688 443.027344 419.710938 442.386719 419.773438 C 441.746094 419.835938 441.109375 419.929688 440.480469 420.058594 C 439.847656 420.183594 439.222656 420.339844 438.609375 420.527344 C 437.992188 420.710938 437.386719 420.929688 436.792969 421.175781 C 436.195312 421.421875 435.617188 421.695312 435.046875 422 C 434.480469 422.304688 433.929688 422.632812 433.394531 422.992188 C 432.859375 423.347656 432.339844 423.734375 431.84375 424.140625 C 431.347656 424.550781 430.871094 424.980469 430.414062 425.4375 C 429.960938 425.890625 429.527344 426.367188 429.117188 426.867188 C 428.710938 427.363281 428.328125 427.878906 427.96875 428.414062 C 427.613281 428.949219 427.28125 429.503906 426.976562 430.070312 C 426.675781 430.636719 426.398438 431.21875 426.152344 431.8125 C 425.90625 432.410156 425.691406 433.015625 425.503906 433.628906 C 425.316406 434.246094 425.160156 434.871094 425.035156 435.5 C 424.910156 436.132812 424.816406 436.769531 424.75 437.410156 C 424.6875 438.050781 424.65625 438.691406 424.65625 439.335938 Z M 444.3125 439.335938 L 483.628906 439.335938 L 483.628906 478.652344 L 444.3125 478.652344 Z M 444.3125 439.335938 " fill-opacity="1" fill-rule="nonzero"/><path fill="#545454" d="M 542.601562 478.652344 C 542.601562 479.296875 542.632812 479.9375 542.695312 480.578125 C 542.761719 481.21875 542.855469 481.855469 542.980469 482.488281 C 543.105469 483.117188 543.261719 483.742188 543.449219 484.359375 C 543.636719 484.972656 543.851562 485.578125 544.097656 486.175781 C 544.34375 486.769531 544.621094 487.351562 544.921875 487.917969 C 545.226562 488.484375 545.558594 489.039062 545.914062 489.574219 C 546.273438 490.109375 546.65625 490.625 547.0625 491.121094 C 547.472656 491.621094 547.90625 492.097656 548.359375 492.550781 C 548.816406 493.007812 549.292969 493.4375 549.789062 493.847656 C 550.285156 494.253906 550.804688 494.640625 551.339844 494.996094 C 551.875 495.355469 552.425781 495.683594 552.992188 495.988281 C 553.5625 496.292969 554.140625 496.566406 554.738281 496.8125 C 555.332031 497.058594 555.9375 497.277344 556.554688 497.460938 C 557.167969 497.648438 557.792969 497.804688 558.425781 497.929688 C 559.054688 498.058594 559.691406 498.152344 560.332031 498.214844 C 560.972656 498.277344 561.617188 498.308594 562.257812 498.308594 L 601.574219 498.308594 C 602.21875 498.308594 602.859375 498.277344 603.5 498.214844 C 604.140625 498.152344 604.777344 498.058594 605.410156 497.929688 C 606.042969 497.804688 606.664062 497.648438 607.28125 497.460938 C 607.898438 497.277344 608.503906 497.058594 609.097656 496.8125 C 609.691406 496.566406 610.273438 496.292969 610.839844 495.988281 C 611.410156 495.683594 611.960938 495.355469 612.496094 494.996094 C 613.03125 494.640625 613.546875 494.253906 614.046875 493.847656 C 614.542969 493.4375 615.019531 493.007812 615.476562 492.550781 C 615.929688 492.097656 616.363281 491.621094 616.769531 491.121094 C 617.179688 490.625 617.5625 490.109375 617.917969 489.574219 C 618.277344 489.039062 618.609375 488.484375 618.910156 487.917969 C 619.214844 487.351562 619.488281 486.769531 619.734375 486.175781 C 619.980469 485.578125 620.199219 484.972656 620.386719 484.359375 C 620.574219 483.742188 620.730469 483.117188 620.855469 482.488281 C 620.980469 481.855469 621.074219 481.21875 621.136719 480.578125 C 621.199219 479.9375 621.230469 479.296875 621.230469 478.652344 L 621.230469 439.335938 C 621.230469 438.691406 621.199219 438.050781 621.136719 437.410156 C 621.074219 436.769531 620.980469 436.132812 620.855469 435.5 C 620.730469 434.871094 620.574219 434.246094 620.386719 433.628906 C 620.199219 433.015625 619.980469 432.410156 619.734375 431.8125 C 619.488281 431.21875 619.214844 430.636719 618.910156 430.070312 C 618.609375 429.503906 618.277344 428.949219 617.917969 428.414062 C 617.5625 427.878906 617.179688 427.363281 616.769531 426.867188 C 616.363281 426.367188 615.929688 425.890625 615.476562 425.4375 C 615.019531 424.980469 614.542969 424.550781 614.046875 424.140625 C 613.546875 423.734375 613.03125 423.347656 612.496094 422.992188 C 611.960938 422.632812 611.410156 422.304688 610.839844 422 C 610.273438 421.695312 609.691406 421.421875 609.097656 421.175781 C 608.503906 420.929688 607.898438 420.710938 607.28125 420.527344 C 606.664062 420.339844 606.042969 420.183594 605.410156 420.058594 C 604.777344 419.929688 604.140625 419.835938 603.5 419.773438 C 602.859375 419.710938 602.21875 419.679688 601.574219 419.679688 L 562.257812 419.679688 C 561.617188 419.679688 560.972656 419.710938 560.332031 419.773438 C 559.691406 419.835938 559.054688 419.929688 558.425781 420.058594 C 557.792969 420.183594 557.167969 420.339844 556.554688 420.527344 C 555.9375 420.710938 555.332031 420.929688 554.738281 421.175781 C 554.140625 421.421875 553.5625 421.695312 552.992188 422 C 552.425781 422.304688 551.875 422.632812 551.339844 422.992188 C 550.804688 423.347656 550.285156 423.734375 549.789062 424.140625 C 549.292969 424.550781 548.816406 424.980469 548.359375 425.4375 C 547.90625 425.890625 547.472656 426.367188 547.0625 426.867188 C 546.65625 427.363281 546.273438 427.878906 545.914062 428.414062 C 545.558594 428.949219 545.226562 429.503906 544.921875 430.070312 C 544.621094 430.636719 544.34375 431.21875 544.097656 431.8125 C 543.851562 432.410156 543.636719 433.015625 543.449219 433.628906 C 543.261719 434.246094 543.105469 434.871094 542.980469 435.5 C 542.855469 436.132812 542.761719 436.769531 542.695312 437.410156 C 542.632812 438.050781 542.601562 438.691406 542.601562 439.335938 Z M 562.257812 439.335938 L 601.574219 439.335938 L 601.574219 478.652344 L 562.257812 478.652344 Z M 562.257812 439.335938 " fill-opacity="1" fill-rule="nonzero"/><path fill="#545454" d="M 188.765625 581.855469 C 188.765625 582.496094 188.796875 583.140625 188.859375 583.78125 C 188.925781 584.421875 189.019531 585.058594 189.144531 585.6875 C 189.269531 586.320312 189.425781 586.945312 189.613281 587.558594 C 189.800781 588.175781 190.015625 588.78125 190.261719 589.375 C 190.507812 589.972656 190.785156 590.550781 191.085938 591.121094 C 191.390625 591.6875 191.722656 592.238281 192.078125 592.773438 C 192.4375 593.308594 192.820312 593.828125 193.226562 594.324219 C 193.636719 594.820312 194.070312 595.296875 194.523438 595.753906 C 194.980469 596.210938 195.457031 596.640625 195.953125 597.050781 C 196.449219 597.457031 196.96875 597.839844 197.503906 598.199219 C 198.039062 598.554688 198.589844 598.886719 199.15625 599.191406 C 199.726562 599.492188 200.304688 599.769531 200.902344 600.015625 C 201.496094 600.261719 202.101562 600.476562 202.71875 600.664062 C 203.332031 600.851562 203.957031 601.007812 204.589844 601.132812 C 205.21875 601.257812 205.855469 601.355469 206.496094 601.417969 C 207.136719 601.480469 207.78125 601.511719 208.421875 601.511719 L 247.738281 601.511719 C 248.382812 601.511719 249.023438 601.480469 249.664062 601.417969 C 250.304688 601.355469 250.941406 601.257812 251.574219 601.132812 C 252.207031 601.007812 252.828125 600.851562 253.445312 600.664062 C 254.0625 600.476562 254.667969 600.261719 255.261719 600.015625 C 255.855469 599.769531 256.4375 599.492188 257.003906 599.191406 C 257.574219 598.886719 258.125 598.554688 258.660156 598.199219 C 259.195312 597.839844 259.710938 597.457031 260.210938 597.050781 C 260.707031 596.640625 261.183594 596.210938 261.640625 595.753906 C 262.09375 595.296875 262.527344 594.820312 262.933594 594.324219 C 263.34375 593.828125 263.726562 593.308594 264.082031 592.773438 C 264.441406 592.238281 264.773438 591.6875 265.074219 591.121094 C 265.378906 590.550781 265.652344 589.972656 265.898438 589.375 C 266.144531 588.78125 266.363281 588.175781 266.550781 587.558594 C 266.738281 586.945312 266.894531 586.320312 267.019531 585.6875 C 267.144531 585.058594 267.238281 584.421875 267.300781 583.78125 C 267.363281 583.140625 267.394531 582.496094 267.394531 581.855469 L 267.394531 542.539062 C 267.394531 541.894531 267.363281 541.253906 267.300781 540.613281 C 267.238281 539.972656 267.144531 539.335938 267.019531 538.703125 C 266.894531 538.070312 266.738281 537.449219 266.550781 536.832031 C 266.363281 536.214844 266.144531 535.609375 265.898438 535.015625 C 265.652344 534.421875 265.378906 533.839844 265.074219 533.273438 C 264.773438 532.703125 264.441406 532.152344 264.082031 531.617188 C 263.726562 531.082031 263.34375 530.566406 262.933594 530.066406 C 262.527344 529.570312 262.09375 529.09375 261.640625 528.640625 C 261.183594 528.183594 260.707031 527.75 260.210938 527.34375 C 259.710938 526.933594 259.195312 526.550781 258.660156 526.195312 C 258.125 525.835938 257.574219 525.503906 257.003906 525.203125 C 256.4375 524.898438 255.855469 524.625 255.261719 524.378906 C 254.667969 524.132812 254.0625 523.914062 253.445312 523.726562 C 252.828125 523.539062 252.207031 523.382812 251.574219 523.257812 C 250.941406 523.132812 250.304688 523.039062 249.664062 522.976562 C 249.023438 522.914062 248.382812 522.882812 247.738281 522.882812 L 208.421875 522.882812 C 207.78125 522.882812 207.136719 522.914062 206.496094 522.976562 C 205.855469 523.039062 205.21875 523.132812 204.589844 523.257812 C 203.957031 523.382812 203.332031 523.539062 202.71875 523.726562 C 202.101562 523.914062 201.496094 524.132812 200.902344 524.378906 C 200.304688 524.625 199.726562 524.898438 199.15625 525.203125 C 198.589844 525.503906 198.039062 525.835938 197.503906 526.195312 C 196.96875 526.550781 196.449219 526.933594 195.953125 527.34375 C 195.457031 527.75 194.980469 528.183594 194.523438 528.640625 C 194.070312 529.09375 193.636719 529.570312 193.226562 530.066406 C 192.820312 530.566406 192.4375 531.082031 192.078125 531.617188 C 191.722656 532.152344 191.390625 532.703125 191.085938 533.273438 C 190.785156 533.839844 190.507812 534.421875 190.261719 535.015625 C 190.015625 535.609375 189.800781 536.214844 189.613281 536.832031 C 189.425781 537.449219 189.269531 538.074219 189.144531 538.703125 C 189.019531 539.335938 188.925781 539.972656 188.859375 540.613281 C 188.796875 541.253906 188.765625 541.894531 188.765625 542.539062 Z M 208.421875 542.539062 L 247.738281 542.539062 L 247.738281 581.855469 L 208.421875 581.855469 Z M 208.421875 542.539062 " fill-opacity="1" fill-rule="nonzero"/><path fill="#545454" d="M 306.710938 581.855469 C 306.710938 582.496094 306.742188 583.140625 306.804688 583.78125 C 306.871094 584.421875 306.964844 585.058594 307.089844 585.6875 C 307.214844 586.320312 307.371094 586.945312 307.558594 587.558594 C 307.746094 588.175781 307.960938 588.78125 308.207031 589.375 C 308.453125 589.972656 308.730469 590.550781 309.03125 591.121094 C 309.335938 591.6875 309.667969 592.238281 310.023438 592.773438 C 310.382812 593.308594 310.765625 593.828125 311.171875 594.324219 C 311.582031 594.820312 312.015625 595.296875 312.46875 595.753906 C 312.925781 596.210938 313.402344 596.640625 313.898438 597.050781 C 314.394531 597.457031 314.914062 597.839844 315.449219 598.199219 C 315.984375 598.554688 316.535156 598.886719 317.101562 599.191406 C 317.671875 599.492188 318.25 599.769531 318.847656 600.015625 C 319.441406 600.261719 320.046875 600.476562 320.664062 600.664062 C 321.277344 600.851562 321.902344 601.007812 322.535156 601.132812 C 323.164062 601.257812 323.800781 601.355469 324.441406 601.417969 C 325.082031 601.480469 325.726562 601.511719 326.367188 601.511719 L 365.683594 601.511719 C 366.328125 601.511719 366.96875 601.480469 367.609375 601.417969 C 368.25 601.355469 368.886719 601.257812 369.519531 601.132812 C 370.152344 601.007812 370.773438 600.851562 371.390625 600.664062 C 372.007812 600.476562 372.613281 600.261719 373.207031 600.015625 C 373.800781 599.769531 374.382812 599.492188 374.949219 599.191406 C 375.519531 598.886719 376.070312 598.554688 376.605469 598.199219 C 377.140625 597.839844 377.65625 597.457031 378.15625 597.050781 C 378.652344 596.640625 379.128906 596.210938 379.585938 595.753906 C 380.039062 595.296875 380.472656 594.820312 380.878906 594.324219 C 381.289062 593.828125 381.671875 593.308594 382.027344 592.773438 C 382.386719 592.238281 382.71875 591.6875 383.019531 591.121094 C 383.324219 590.550781 383.597656 589.972656 383.84375 589.375 C 384.089844 588.78125 384.308594 588.175781 384.496094 587.558594 C 384.683594 586.945312 384.839844 586.320312 384.964844 585.6875 C 385.089844 585.058594 385.183594 584.421875 385.246094 583.78125 C 385.308594 583.140625 385.339844 582.496094 385.339844 581.855469 L 385.339844 542.539062 C 385.339844 541.894531 385.308594 541.253906 385.246094 540.613281 C 385.183594 539.972656 385.089844 539.335938 384.964844 538.703125 C 384.839844 538.070312 384.683594 537.449219 384.496094 536.832031 C 384.308594 536.214844 384.089844 535.609375 383.84375 535.015625 C 383.597656 534.421875 383.324219 533.839844 383.019531 533.273438 C 382.71875 532.703125 382.386719 532.152344 382.027344 531.617188 C 381.671875 531.082031 381.289062 530.566406 380.878906 530.066406 C 380.472656 529.570312 380.039062 529.09375 379.585938 528.640625 C 379.128906 528.183594 378.652344 527.75 378.15625 527.34375 C 377.65625 526.933594 377.140625 526.550781 376.605469 526.195312 C 376.070312 525.835938 375.519531 525.503906 374.949219 525.203125 C 374.382812 524.898438 373.800781 524.625 373.207031 524.378906 C 372.613281 524.132812 372.007812 523.914062 371.390625 523.726562 C 370.773438 523.539062 370.152344 523.382812 369.519531 523.257812 C 368.886719 523.132812 368.25 523.039062 367.609375 522.976562 C 366.96875 522.914062 366.328125 522.882812 365.683594 522.882812 L 326.367188 522.882812 C 325.726562 522.882812 325.082031 522.914062 324.441406 522.976562 C 323.800781 523.039062 323.164062 523.132812 322.535156 523.257812 C 321.902344 523.382812 321.277344 523.539062 320.664062 523.726562 C 320.046875 523.914062 319.441406 524.132812 318.847656 524.378906 C 318.25 524.625 317.671875 524.898438 317.101562 525.203125 C 316.535156 525.503906 315.984375 525.835938 315.449219 526.195312 C 314.914062 526.550781 314.394531 526.933594 313.898438 527.34375 C 313.402344 527.75 312.925781 528.183594 312.46875 528.640625 C 312.015625 529.09375 311.582031 529.570312 311.171875 530.066406 C 310.765625 530.566406 310.382812 531.082031 310.023438 531.617188 C 309.667969 532.152344 309.335938 532.703125 309.03125 533.273438 C 308.730469 533.839844 308.453125 534.421875 308.207031 535.015625 C 307.960938 535.609375 307.746094 536.214844 307.558594 536.832031 C 307.371094 537.449219 307.214844 538.074219 307.089844 538.703125 C 306.964844 539.335938 306.871094 539.972656 306.804688 540.613281 C 306.742188 541.253906 306.710938 541.894531 306.710938 542.539062 Z M 326.367188 542.539062 L 365.683594 542.539062 L 365.683594 581.855469 L 326.367188 581.855469 Z M 326.367188 542.539062 " fill-opacity="1" fill-rule="nonzero"/><path fill="#545454" d="M 424.65625 581.855469 C 424.65625 582.496094 424.6875 583.140625 424.75 583.78125 C 424.816406 584.421875 424.910156 585.058594 425.035156 585.6875 C 425.160156 586.320312 425.316406 586.945312 425.503906 587.558594 C 425.691406 588.175781 425.90625 588.78125 426.152344 589.375 C 426.398438 589.972656 426.675781 590.550781 426.976562 591.121094 C 427.28125 591.6875 427.613281 592.238281 427.96875 592.773438 C 428.328125 593.308594 428.710938 593.828125 429.117188 594.324219 C 429.527344 594.820312 429.960938 595.296875 430.414062 595.753906 C 430.871094 596.210938 431.347656 596.640625 431.84375 597.050781 C 432.339844 597.457031 432.859375 597.839844 433.394531 598.199219 C 433.929688 598.554688 434.480469 598.886719 435.046875 599.191406 C 435.617188 599.492188 436.195312 599.769531 436.792969 600.015625 C 437.386719 600.261719 437.992188 600.476562 438.609375 600.664062 C 439.222656 600.851562 439.847656 601.007812 440.480469 601.132812 C 441.109375 601.257812 441.746094 601.355469 442.386719 601.417969 C 443.027344 601.480469 443.671875 601.511719 444.3125 601.511719 L 483.628906 601.511719 C 484.273438 601.511719 484.914062 601.480469 485.554688 601.417969 C 486.195312 601.355469 486.832031 601.257812 487.464844 601.132812 C 488.097656 601.007812 488.71875 600.851562 489.335938 600.664062 C 489.953125 600.476562 490.558594 600.261719 491.152344 600.015625 C 491.746094 599.769531 492.328125 599.492188 492.894531 599.191406 C 493.464844 598.886719 494.015625 598.554688 494.550781 598.199219 C 495.085938 597.839844 495.601562 597.457031 496.101562 597.050781 C 496.597656 596.640625 497.074219 596.210938 497.53125 595.753906 C 497.984375 595.296875 498.417969 594.820312 498.824219 594.324219 C 499.234375 593.828125 499.617188 593.308594 499.972656 592.773438 C 500.332031 592.238281 500.664062 591.6875 500.964844 591.121094 C 501.269531 590.550781 501.542969 589.972656 501.789062 589.375 C 502.035156 588.78125 502.253906 588.175781 502.441406 587.558594 C 502.628906 586.945312 502.785156 586.320312 502.910156 585.6875 C 503.035156 585.058594 503.128906 584.421875 503.191406 583.78125 C 503.253906 583.140625 503.285156 582.496094 503.285156 581.855469 L 503.285156 542.539062 C 503.285156 541.894531 503.253906 541.253906 503.191406 540.613281 C 503.128906 539.972656 503.035156 539.335938 502.910156 538.703125 C 502.785156 538.070312 502.628906 537.449219 502.441406 536.832031 C 502.253906 536.214844 502.035156 535.609375 501.789062 535.015625 C 501.542969 534.421875 501.269531 533.839844 500.964844 533.273438 C 500.664062 532.703125 500.332031 532.152344 499.972656 531.617188 C 499.617188 531.082031 499.234375 530.566406 498.824219 530.066406 C 498.417969 529.570312 497.984375 529.09375 497.53125 528.640625 C 497.074219 528.183594 496.597656 527.75 496.101562 527.34375 C 495.601562 526.933594 495.085938 526.550781 494.550781 526.195312 C 494.015625 525.835938 493.464844 525.503906 492.894531 525.203125 C 492.328125 524.898438 491.746094 524.625 491.152344 524.378906 C 490.558594 524.132812 489.953125 523.914062 489.335938 523.726562 C 488.71875 523.539062 488.097656 523.382812 487.464844 523.257812 C 486.832031 523.132812 486.195312 523.039062 485.554688 522.976562 C 484.914062 522.914062 484.273438 522.882812 483.628906 522.882812 L 444.3125 522.882812 C 443.671875 522.882812 443.027344 522.914062 442.386719 522.976562 C 441.746094 523.039062 441.109375 523.132812 440.480469 523.257812 C 439.847656 523.382812 439.222656 523.539062 438.609375 523.726562 C 437.992188 523.914062 437.386719 524.132812 436.792969 524.378906 C 436.195312 524.625 435.617188 524.898438 435.046875 525.203125 C 434.480469 525.503906 433.929688 525.835938 433.394531 526.195312 C 432.859375 526.550781 432.339844 526.933594 431.84375 527.34375 C 431.347656 527.75 430.871094 528.183594 430.414062 528.640625 C 429.960938 529.09375 429.527344 529.570312 429.117188 530.066406 C 428.710938 530.566406 428.328125 531.082031 427.96875 531.617188 C 427.613281 532.152344 427.28125 532.703125 426.976562 533.273438 C 426.675781 533.839844 426.398438 534.421875 426.152344 535.015625 C 425.90625 535.609375 425.691406 536.214844 425.503906 536.832031 C 425.316406 537.449219 425.160156 538.074219 425.035156 538.703125 C 424.910156 539.335938 424.816406 539.972656 424.75 540.613281 C 424.6875 541.253906 424.65625 541.894531 424.65625 542.539062 Z M 444.3125 542.539062 L 483.628906 542.539062 L 483.628906 581.855469 L 444.3125 581.855469 Z M 444.3125 542.539062 " fill-opacity="1" fill-rule="nonzero"/><g clip-path="url(#fa50d0d96b)"><path fill="#545454" d="M 621.230469 149.386719 L 591.746094 149.386719 L 591.746094 144.472656 C 591.746094 143.347656 591.691406 142.222656 591.582031 141.101562 C 591.46875 139.980469 591.304688 138.867188 591.085938 137.761719 C 590.867188 136.65625 590.59375 135.566406 590.265625 134.488281 C 589.9375 133.410156 589.558594 132.347656 589.128906 131.308594 C 588.695312 130.269531 588.214844 129.25 587.683594 128.257812 C 587.152344 127.261719 586.574219 126.296875 585.949219 125.359375 C 585.324219 124.425781 584.652344 123.519531 583.9375 122.648438 C 583.222656 121.777344 582.46875 120.945312 581.671875 120.148438 C 580.875 119.351562 580.039062 118.597656 579.167969 117.882812 C 578.296875 117.167969 577.394531 116.496094 576.457031 115.871094 C 575.519531 115.246094 574.554688 114.664062 573.5625 114.132812 C 572.566406 113.601562 571.550781 113.121094 570.511719 112.691406 C 569.46875 112.261719 568.410156 111.882812 567.332031 111.554688 C 566.253906 111.226562 565.160156 110.953125 564.054688 110.734375 C 562.953125 110.515625 561.839844 110.347656 560.71875 110.238281 C 559.597656 110.128906 558.472656 110.074219 557.34375 110.074219 C 556.21875 110.074219 555.09375 110.128906 553.972656 110.238281 C 552.851562 110.347656 551.738281 110.515625 550.632812 110.734375 C 549.527344 110.953125 548.4375 111.226562 547.359375 111.554688 C 546.28125 111.882812 545.222656 112.261719 544.179688 112.691406 C 543.140625 113.121094 542.121094 113.601562 541.128906 114.132812 C 540.136719 114.664062 539.171875 115.246094 538.234375 115.871094 C 537.296875 116.496094 536.394531 117.167969 535.523438 117.882812 C 534.652344 118.597656 533.816406 119.351562 533.019531 120.148438 C 532.222656 120.945312 531.46875 121.777344 530.753906 122.648438 C 530.039062 123.519531 529.367188 124.425781 528.742188 125.359375 C 528.117188 126.296875 527.539062 127.261719 527.007812 128.257812 C 526.476562 129.25 525.996094 130.269531 525.5625 131.308594 C 525.132812 132.347656 524.753906 133.410156 524.425781 134.488281 C 524.097656 135.566406 523.824219 136.65625 523.605469 137.761719 C 523.386719 138.867188 523.21875 139.980469 523.109375 141.101562 C 523 142.222656 522.945312 143.347656 522.945312 144.472656 L 522.945312 149.386719 L 439.398438 149.386719 L 439.398438 144.472656 C 439.398438 143.347656 439.34375 142.222656 439.234375 141.101562 C 439.125 139.980469 438.957031 138.867188 438.738281 137.761719 C 438.519531 136.65625 438.246094 135.566406 437.917969 134.488281 C 437.589844 133.410156 437.210938 132.347656 436.78125 131.308594 C 436.351562 130.269531 435.867188 129.25 435.339844 128.257812 C 434.808594 127.261719 434.226562 126.296875 433.601562 125.359375 C 432.976562 124.425781 432.304688 123.519531 431.589844 122.648438 C 430.875 121.777344 430.121094 120.945312 429.324219 120.148438 C 428.527344 119.351562 427.695312 118.597656 426.824219 117.882812 C 425.953125 117.167969 425.046875 116.496094 424.109375 115.871094 C 423.175781 115.246094 422.210938 114.664062 421.214844 114.132812 C 420.222656 113.601562 419.203125 113.121094 418.164062 112.691406 C 417.121094 112.261719 416.0625 111.882812 414.984375 111.554688 C 413.90625 111.226562 412.816406 110.953125 411.710938 110.734375 C 410.605469 110.515625 409.492188 110.347656 408.371094 110.238281 C 407.25 110.128906 406.125 110.074219 405 110.074219 C 403.871094 110.074219 402.75 110.128906 401.628906 110.238281 C 400.507812 110.347656 399.394531 110.515625 398.289062 110.734375 C 397.183594 110.953125 396.089844 111.226562 395.011719 111.554688 C 393.933594 111.882812 392.875 112.261719 391.835938 112.691406 C 390.792969 113.121094 389.777344 113.601562 388.78125 114.132812 C 387.789062 114.664062 386.824219 115.246094 385.886719 115.871094 C 384.949219 116.496094 384.046875 117.167969 383.175781 117.882812 C 382.304688 118.597656 381.472656 119.351562 380.675781 120.148438 C 379.878906 120.945312 379.121094 121.777344 378.40625 122.648438 C 377.691406 123.519531 377.023438 124.425781 376.394531 125.359375 C 375.769531 126.296875 375.191406 127.261719 374.660156 128.257812 C 374.128906 129.25 373.648438 130.269531 373.21875 131.308594 C 372.785156 132.347656 372.40625 133.410156 372.078125 134.488281 C 371.753906 135.566406 371.480469 136.65625 371.257812 137.761719 C 371.039062 138.867188 370.875 139.980469 370.765625 141.101562 C 370.652344 142.222656 370.597656 143.347656 370.597656 144.472656 L 370.597656 149.386719 L 287.054688 149.386719 L 287.054688 144.472656 C 287.054688 143.347656 287 142.222656 286.886719 141.101562 C 286.777344 139.980469 286.613281 138.867188 286.394531 137.761719 C 286.171875 136.65625 285.898438 135.566406 285.574219 134.488281 C 285.246094 133.410156 284.867188 132.347656 284.433594 131.308594 C 284.003906 130.269531 283.523438 129.25 282.992188 128.257812 C 282.460938 127.261719 281.882812 126.296875 281.257812 125.359375 C 280.628906 124.425781 279.960938 123.519531 279.246094 122.648438 C 278.53125 121.777344 277.773438 120.945312 276.976562 120.148438 C 276.179688 119.351562 275.347656 118.597656 274.476562 117.882812 C 273.605469 117.167969 272.703125 116.496094 271.765625 115.871094 C 270.828125 115.246094 269.863281 114.664062 268.871094 114.132812 C 267.875 113.601562 266.859375 113.121094 265.816406 112.691406 C 264.777344 112.261719 263.71875 111.882812 262.640625 111.554688 C 261.5625 111.226562 260.46875 110.953125 259.363281 110.734375 C 258.257812 110.515625 257.144531 110.347656 256.023438 110.238281 C 254.902344 110.128906 253.78125 110.074219 252.652344 110.074219 C 251.527344 110.074219 250.402344 110.128906 249.28125 110.238281 C 248.160156 110.347656 247.046875 110.515625 245.941406 110.734375 C 244.835938 110.953125 243.746094 111.226562 242.667969 111.554688 C 241.589844 111.882812 240.53125 112.261719 239.488281 112.691406 C 238.449219 113.121094 237.429688 113.601562 236.4375 114.132812 C 235.441406 114.664062 234.476562 115.246094 233.542969 115.871094 C 232.605469 116.496094 231.699219 117.167969 230.828125 117.882812 C 229.957031 118.597656 229.125 119.351562 228.328125 120.148438 C 227.53125 120.945312 226.777344 121.777344 226.0625 122.648438 C 225.347656 123.519531 224.675781 124.425781 224.050781 125.359375 C 223.425781 126.296875 222.84375 127.261719 222.316406 128.257812 C 221.785156 129.25 221.300781 130.269531 220.871094 131.308594 C 220.441406 132.347656 220.0625 133.410156 219.734375 134.488281 C 219.40625 135.566406 219.132812 136.65625 218.914062 137.761719 C 218.695312 138.867188 218.527344 139.980469 218.417969 141.101562 C 218.308594 142.222656 218.253906 143.347656 218.253906 144.472656 L 218.253906 149.386719 L 188.765625 149.386719 C 187.15625 149.390625 185.550781 149.46875 183.953125 149.628906 C 182.351562 149.789062 180.761719 150.027344 179.183594 150.34375 C 177.605469 150.65625 176.046875 151.050781 174.507812 151.515625 C 172.96875 151.984375 171.457031 152.527344 169.96875 153.144531 C 168.484375 153.761719 167.03125 154.449219 165.613281 155.207031 C 164.195312 155.96875 162.816406 156.792969 161.476562 157.6875 C 160.140625 158.582031 158.851562 159.539062 157.605469 160.5625 C 156.363281 161.582031 155.171875 162.660156 154.035156 163.800781 C 152.894531 164.9375 151.816406 166.128906 150.796875 167.371094 C 149.773438 168.613281 148.816406 169.90625 147.921875 171.242188 C 147.027344 172.582031 146.203125 173.957031 145.441406 175.378906 C 144.683594 176.796875 143.996094 178.25 143.378906 179.734375 C 142.761719 181.21875 142.21875 182.734375 141.753906 184.273438 C 141.285156 185.8125 140.890625 187.371094 140.578125 188.949219 C 140.261719 190.527344 140.023438 192.117188 139.863281 193.714844 C 139.703125 195.316406 139.625 196.921875 139.621094 198.53125 L 139.621094 503.222656 C 139.621094 503.867188 139.683594 504.507812 139.8125 505.140625 C 139.9375 505.773438 140.125 506.386719 140.371094 506.984375 C 140.617188 507.582031 140.921875 508.148438 141.277344 508.683594 C 141.636719 509.222656 142.042969 509.71875 142.5 510.171875 C 142.957031 510.628906 143.453125 511.039062 143.992188 511.394531 C 144.527344 511.753906 145.09375 512.058594 145.691406 512.304688 C 146.285156 512.550781 146.902344 512.738281 147.535156 512.863281 C 148.167969 512.988281 148.804688 513.050781 149.449219 513.050781 C 150.097656 513.050781 150.734375 512.988281 151.367188 512.863281 C 152 512.738281 152.617188 512.550781 153.210938 512.304688 C 153.808594 512.058594 154.375 511.753906 154.910156 511.394531 C 155.449219 511.039062 155.945312 510.628906 156.402344 510.171875 C 156.859375 509.71875 157.265625 509.222656 157.625 508.683594 C 157.980469 508.148438 158.285156 507.582031 158.53125 506.984375 C 158.777344 506.386719 158.964844 505.773438 159.089844 505.140625 C 159.21875 504.507812 159.28125 503.867188 159.28125 503.222656 L 159.28125 286.992188 L 650.71875 286.992188 L 650.71875 522.882812 C 650.71875 523.527344 650.65625 524.164062 650.53125 524.796875 C 650.402344 525.429688 650.21875 526.046875 649.96875 526.640625 C 649.722656 527.238281 649.421875 527.804688 649.0625 528.339844 C 648.703125 528.878906 648.296875 529.375 647.839844 529.832031 C 647.382812 530.289062 646.886719 530.695312 646.351562 531.054688 C 645.8125 531.410156 645.246094 531.714844 644.652344 531.960938 C 644.054688 532.207031 643.441406 532.394531 642.808594 532.519531 C 642.175781 532.648438 641.535156 532.710938 640.890625 532.710938 L 591.746094 532.710938 C 590.136719 532.710938 588.53125 532.792969 586.929688 532.953125 C 585.328125 533.113281 583.742188 533.347656 582.164062 533.664062 C 580.585938 533.980469 579.027344 534.371094 577.488281 534.839844 C 575.949219 535.308594 574.433594 535.851562 572.949219 536.46875 C 571.464844 537.082031 570.011719 537.773438 568.59375 538.53125 C 567.171875 539.289062 565.796875 540.117188 564.457031 541.011719 C 563.121094 541.90625 561.828125 542.863281 560.585938 543.882812 C 559.34375 544.90625 558.152344 545.984375 557.015625 547.121094 C 555.875 548.257812 554.796875 549.449219 553.777344 550.695312 C 552.753906 551.9375 551.796875 553.226562 550.902344 554.566406 C 550.007812 555.902344 549.183594 557.28125 548.421875 558.699219 C 547.664062 560.117188 546.976562 561.570312 546.359375 563.058594 C 545.742188 564.542969 545.199219 566.054688 544.730469 567.59375 C 544.265625 569.132812 543.871094 570.691406 543.554688 572.269531 C 543.242188 573.847656 543.003906 575.4375 542.84375 577.039062 C 542.683594 578.640625 542.605469 580.246094 542.601562 581.855469 L 542.601562 630.996094 C 542.601562 631.644531 542.539062 632.28125 542.414062 632.914062 C 542.289062 633.546875 542.101562 634.164062 541.855469 634.757812 C 541.605469 635.355469 541.304688 635.921875 540.945312 636.457031 C 540.585938 636.996094 540.179688 637.492188 539.722656 637.949219 C 539.265625 638.402344 538.769531 638.8125 538.234375 639.171875 C 537.699219 639.527344 537.132812 639.832031 536.535156 640.078125 C 535.9375 640.324219 535.324219 640.511719 534.691406 640.636719 C 534.058594 640.761719 533.417969 640.828125 532.773438 640.828125 L 188.765625 640.222656 C 187.800781 640.222656 186.835938 640.175781 185.875 640.082031 C 184.914062 639.988281 183.960938 639.847656 183.015625 639.65625 C 182.066406 639.46875 181.132812 639.234375 180.207031 638.953125 C 179.28125 638.675781 178.375 638.347656 177.480469 637.980469 C 176.589844 637.609375 175.71875 637.199219 174.867188 636.742188 C 174.015625 636.289062 173.1875 635.792969 172.382812 635.253906 C 171.582031 634.71875 170.808594 634.144531 170.058594 633.53125 C 169.3125 632.917969 168.597656 632.269531 167.917969 631.589844 C 167.234375 630.90625 166.585938 630.191406 165.972656 629.445312 C 165.359375 628.699219 164.785156 627.921875 164.25 627.121094 C 163.710938 626.316406 163.21875 625.488281 162.761719 624.636719 C 162.304688 623.785156 161.894531 622.914062 161.523438 622.023438 C 161.15625 621.128906 160.828125 620.222656 160.550781 619.296875 C 160.269531 618.375 160.035156 617.4375 159.847656 616.492188 C 159.65625 615.542969 159.515625 614.589844 159.421875 613.628906 C 159.328125 612.667969 159.28125 611.703125 159.28125 610.738281 L 159.28125 581.855469 C 159.28125 581.207031 159.21875 580.570312 159.089844 579.9375 C 158.964844 579.304688 158.777344 578.6875 158.53125 578.09375 C 158.285156 577.496094 157.980469 576.929688 157.625 576.394531 C 157.265625 575.855469 156.859375 575.359375 156.402344 574.902344 C 155.945312 574.449219 155.449219 574.039062 154.910156 573.679688 C 154.375 573.324219 153.808594 573.019531 153.210938 572.773438 C 152.617188 572.527344 152 572.339844 151.367188 572.214844 C 150.734375 572.089844 150.097656 572.023438 149.449219 572.023438 C 148.804688 572.023438 148.167969 572.089844 147.535156 572.214844 C 146.902344 572.339844 146.285156 572.527344 145.691406 572.773438 C 145.09375 573.019531 144.527344 573.324219 143.992188 573.679688 C 143.453125 574.039062 142.957031 574.449219 142.5 574.902344 C 142.042969 575.359375 141.636719 575.855469 141.277344 576.394531 C 140.921875 576.929688 140.617188 577.496094 140.371094 578.09375 C 140.125 578.6875 139.9375 579.304688 139.8125 579.9375 C 139.683594 580.570312 139.621094 581.207031 139.621094 581.855469 L 139.621094 650.65625 C 139.625 652.265625 139.707031 653.871094 139.863281 655.46875 C 140.023438 657.070312 140.261719 658.660156 140.578125 660.238281 C 140.890625 661.816406 141.285156 663.375 141.753906 664.914062 C 142.21875 666.453125 142.761719 667.964844 143.378906 669.453125 C 143.996094 670.9375 144.683594 672.390625 145.441406 673.808594 C 146.203125 675.226562 147.027344 676.605469 147.921875 677.945312 C 148.816406 679.28125 149.773438 680.570312 150.796875 681.816406 C 151.816406 683.058594 152.898438 684.25 154.035156 685.386719 C 155.171875 686.523438 156.363281 687.605469 157.605469 688.625 C 158.851562 689.644531 160.140625 690.605469 161.476562 691.496094 C 162.816406 692.390625 164.195312 693.21875 165.613281 693.976562 C 167.03125 694.738281 168.484375 695.425781 169.96875 696.042969 C 171.457031 696.660156 172.96875 697.199219 174.507812 697.667969 C 176.046875 698.136719 177.605469 698.527344 179.183594 698.84375 C 180.761719 699.160156 182.351562 699.398438 183.953125 699.558594 C 185.550781 699.714844 187.15625 699.796875 188.765625 699.800781 L 621.230469 699.800781 C 622.839844 699.796875 624.445312 699.714844 626.046875 699.558594 C 627.648438 699.398438 629.238281 699.160156 630.816406 698.84375 C 632.394531 698.527344 633.953125 698.136719 635.492188 697.667969 C 637.03125 697.199219 638.542969 696.660156 640.03125 696.042969 C 641.515625 695.425781 642.96875 694.738281 644.386719 693.976562 C 645.804688 693.21875 647.183594 692.390625 648.519531 691.496094 C 649.859375 690.605469 651.148438 689.644531 652.390625 688.625 C 653.636719 687.605469 654.828125 686.523438 655.964844 685.386719 C 657.101562 684.25 658.179688 683.058594 659.203125 681.816406 C 660.222656 680.570312 661.179688 679.28125 662.074219 677.945312 C 662.96875 676.605469 663.796875 675.226562 664.554688 673.808594 C 665.3125 672.390625 666.003906 670.9375 666.617188 669.453125 C 667.234375 667.964844 667.777344 666.453125 668.246094 664.914062 C 668.714844 663.375 669.105469 661.816406 669.421875 660.238281 C 669.738281 658.660156 669.972656 657.070312 670.132812 655.46875 C 670.292969 653.871094 670.375 652.265625 670.375 650.65625 L 670.375 198.53125 C 670.375 196.921875 670.292969 195.316406 670.132812 193.714844 C 669.972656 192.117188 669.738281 190.527344 669.421875 188.949219 C 669.105469 187.371094 668.714844 185.8125 668.246094 184.273438 C 667.777344 182.734375 667.234375 181.21875 666.617188 179.734375 C 666.003906 178.25 665.3125 176.796875 664.554688 175.378906 C 663.796875 173.957031 662.96875 172.582031 662.074219 171.242188 C 661.179688 169.90625 660.222656 168.613281 659.203125 167.371094 C 658.179688 166.128906 657.101562 164.9375 655.964844 163.800781 C 654.828125 162.660156 653.636719 161.582031 652.390625 160.5625 C 651.148438 159.539062 649.859375 158.582031 648.519531 157.6875 C 647.183594 156.792969 645.804688 155.96875 644.386719 155.207031 C 642.96875 154.449219 641.515625 153.761719 640.03125 153.144531 C 638.542969 152.527344 637.03125 151.984375 635.492188 151.515625 C 633.953125 151.050781 632.394531 150.65625 630.816406 150.34375 C 629.238281 150.027344 627.648438 149.789062 626.046875 149.628906 C 624.445312 149.46875 622.839844 149.390625 621.230469 149.386719 Z M 542.601562 144.472656 C 542.601562 143.503906 542.695312 142.546875 542.886719 141.597656 C 543.074219 140.648438 543.355469 139.726562 543.722656 138.832031 C 544.09375 137.9375 544.550781 137.085938 545.085938 136.28125 C 545.625 135.476562 546.234375 134.734375 546.921875 134.046875 C 547.605469 133.363281 548.347656 132.753906 549.15625 132.214844 C 549.960938 131.675781 550.808594 131.222656 551.703125 130.851562 C 552.597656 130.480469 553.519531 130.203125 554.46875 130.011719 C 555.417969 129.824219 556.378906 129.730469 557.34375 129.730469 C 558.3125 129.730469 559.273438 129.824219 560.222656 130.011719 C 561.171875 130.203125 562.09375 130.480469 562.988281 130.851562 C 563.882812 131.222656 564.730469 131.675781 565.535156 132.214844 C 566.339844 132.753906 567.085938 133.363281 567.769531 134.046875 C 568.453125 134.734375 569.066406 135.476562 569.605469 136.28125 C 570.140625 137.085938 570.59375 137.9375 570.964844 138.832031 C 571.335938 139.726562 571.617188 140.648438 571.804688 141.597656 C 571.992188 142.546875 572.089844 143.503906 572.089844 144.472656 L 572.089844 183.789062 C 572.089844 184.757812 571.992188 185.714844 571.804688 186.664062 C 571.617188 187.613281 571.335938 188.535156 570.964844 189.429688 C 570.59375 190.324219 570.140625 191.175781 569.605469 191.980469 C 569.066406 192.785156 568.453125 193.527344 567.769531 194.214844 C 567.085938 194.898438 566.339844 195.507812 565.535156 196.046875 C 564.730469 196.585938 563.882812 197.039062 562.988281 197.410156 C 562.09375 197.78125 561.171875 198.058594 560.222656 198.25 C 559.273438 198.4375 558.3125 198.53125 557.34375 198.53125 C 556.378906 198.53125 555.417969 198.4375 554.46875 198.25 C 553.519531 198.058594 552.597656 197.78125 551.703125 197.410156 C 550.808594 197.039062 549.960938 196.585938 549.15625 196.046875 C 548.347656 195.507812 547.605469 194.898438 546.921875 194.214844 C 546.234375 193.527344 545.625 192.785156 545.085938 191.980469 C 544.550781 191.175781 544.09375 190.324219 543.722656 189.429688 C 543.355469 188.535156 543.074219 187.613281 542.886719 186.664062 C 542.695312 185.714844 542.601562 184.757812 542.601562 183.789062 Z M 390.257812 144.472656 C 390.257812 143.503906 390.351562 142.546875 390.539062 141.597656 C 390.726562 140.648438 391.007812 139.726562 391.378906 138.832031 C 391.75 137.9375 392.203125 137.085938 392.742188 136.28125 C 393.277344 135.476562 393.890625 134.734375 394.574219 134.046875 C 395.257812 133.363281 396.003906 132.753906 396.808594 132.214844 C 397.613281 131.675781 398.464844 131.222656 399.355469 130.851562 C 400.25 130.480469 401.171875 130.203125 402.121094 130.011719 C 403.074219 129.824219 404.03125 129.730469 405 129.730469 C 405.96875 129.730469 406.925781 129.824219 407.875 130.011719 C 408.824219 130.203125 409.746094 130.480469 410.640625 130.851562 C 411.535156 131.222656 412.386719 131.675781 413.191406 132.214844 C 413.996094 132.753906 414.738281 133.363281 415.425781 134.046875 C 416.109375 134.734375 416.71875 135.476562 417.257812 136.28125 C 417.796875 137.085938 418.25 137.9375 418.621094 138.832031 C 418.992188 139.726562 419.269531 140.648438 419.460938 141.597656 C 419.648438 142.546875 419.742188 143.503906 419.742188 144.472656 L 419.742188 183.789062 C 419.742188 184.757812 419.648438 185.714844 419.460938 186.664062 C 419.269531 187.613281 418.992188 188.535156 418.621094 189.429688 C 418.25 190.324219 417.796875 191.175781 417.257812 191.980469 C 416.71875 192.785156 416.109375 193.527344 415.425781 194.214844 C 414.738281 194.898438 413.996094 195.507812 413.191406 196.046875 C 412.386719 196.585938 411.535156 197.039062 410.640625 197.410156 C 409.746094 197.78125 408.824219 198.058594 407.875 198.25 C 406.925781 198.4375 405.96875 198.53125 405 198.53125 C 404.03125 198.53125 403.074219 198.4375 402.121094 198.25 C 401.171875 198.058594 400.25 197.78125 399.355469 197.410156 C 398.464844 197.039062 397.613281 196.585938 396.808594 196.046875 C 396.003906 195.507812 395.257812 194.898438 394.574219 194.214844 C 393.890625 193.527344 393.277344 192.785156 392.742188 191.980469 C 392.203125 191.175781 391.75 190.324219 391.378906 189.429688 C 391.007812 188.535156 390.726562 187.613281 390.539062 186.664062 C 390.351562 185.714844 390.257812 184.757812 390.257812 183.789062 Z M 237.910156 144.472656 C 237.910156 143.503906 238.003906 142.546875 238.195312 141.597656 C 238.382812 140.648438 238.660156 139.726562 239.03125 138.832031 C 239.402344 137.9375 239.855469 137.085938 240.394531 136.28125 C 240.933594 135.476562 241.542969 134.734375 242.226562 134.046875 C 242.914062 133.363281 243.65625 132.753906 244.460938 132.214844 C 245.265625 131.675781 246.117188 131.222656 247.011719 130.851562 C 247.90625 130.480469 248.828125 130.203125 249.777344 130.011719 C 250.726562 129.824219 251.683594 129.730469 252.652344 129.730469 C 253.621094 129.730469 254.578125 129.824219 255.53125 130.011719 C 256.480469 130.203125 257.402344 130.480469 258.296875 130.851562 C 259.191406 131.222656 260.039062 131.675781 260.84375 132.214844 C 261.648438 132.753906 262.394531 133.363281 263.078125 134.046875 C 263.761719 134.734375 264.375 135.476562 264.910156 136.28125 C 265.449219 137.085938 265.902344 137.9375 266.273438 138.832031 C 266.644531 139.726562 266.925781 140.648438 267.113281 141.597656 C 267.300781 142.546875 267.394531 143.503906 267.394531 144.472656 L 267.394531 183.789062 C 267.394531 184.757812 267.300781 185.714844 267.113281 186.664062 C 266.925781 187.613281 266.644531 188.535156 266.273438 189.429688 C 265.902344 190.324219 265.449219 191.175781 264.910156 191.980469 C 264.375 192.785156 263.761719 193.527344 263.078125 194.214844 C 262.394531 194.898438 261.648438 195.507812 260.84375 196.046875 C 260.039062 196.585938 259.191406 197.039062 258.296875 197.410156 C 257.402344 197.78125 256.480469 198.058594 255.53125 198.25 C 254.578125 198.4375 253.621094 198.53125 252.652344 198.53125 C 251.683594 198.53125 250.726562 198.4375 249.777344 198.25 C 248.828125 198.058594 247.90625 197.78125 247.011719 197.410156 C 246.117188 197.039062 245.265625 196.585938 244.460938 196.046875 C 243.65625 195.507812 242.914062 194.898438 242.226562 194.214844 C 241.542969 193.527344 240.933594 192.785156 240.394531 191.980469 C 239.855469 191.175781 239.402344 190.324219 239.03125 189.429688 C 238.660156 188.535156 238.382812 187.613281 238.195312 186.664062 C 238.003906 185.714844 237.910156 184.757812 237.910156 183.789062 Z M 159.28125 267.332031 L 159.28125 198.53125 C 159.28125 197.566406 159.328125 196.601562 159.421875 195.640625 C 159.515625 194.679688 159.65625 193.726562 159.847656 192.777344 C 160.035156 191.832031 160.269531 190.894531 160.550781 189.972656 C 160.828125 189.046875 161.15625 188.140625 161.523438 187.246094 C 161.894531 186.355469 162.304688 185.484375 162.761719 184.632812 C 163.21875 183.78125 163.710938 182.953125 164.25 182.148438 C 164.785156 181.347656 165.359375 180.570312 165.972656 179.824219 C 166.585938 179.078125 167.234375 178.363281 167.917969 177.679688 C 168.597656 177 169.3125 176.351562 170.058594 175.738281 C 170.808594 175.125 171.582031 174.550781 172.382812 174.015625 C 173.1875 173.476562 174.015625 172.980469 174.867188 172.527344 C 175.71875 172.070312 176.589844 171.660156 177.480469 171.289062 C 178.375 170.921875 179.28125 170.59375 180.207031 170.316406 C 181.132812 170.035156 182.066406 169.800781 183.015625 169.613281 C 183.960938 169.421875 184.914062 169.28125 185.875 169.1875 C 186.835938 169.09375 187.800781 169.046875 188.765625 169.046875 L 218.253906 169.046875 L 218.253906 183.789062 C 218.253906 184.914062 218.308594 186.039062 218.417969 187.160156 C 218.527344 188.28125 218.695312 189.394531 218.914062 190.5 C 219.132812 191.605469 219.40625 192.695312 219.734375 193.773438 C 220.0625 194.851562 220.441406 195.910156 220.871094 196.953125 C 221.300781 197.992188 221.785156 199.011719 222.316406 200.003906 C 222.84375 201 223.425781 201.964844 224.050781 202.898438 C 224.675781 203.835938 225.347656 204.742188 226.0625 205.613281 C 226.777344 206.484375 227.53125 207.316406 228.328125 208.113281 C 229.125 208.910156 229.957031 209.664062 230.828125 210.378906 C 231.699219 211.09375 232.605469 211.765625 233.542969 212.390625 C 234.476562 213.015625 235.441406 213.597656 236.4375 214.128906 C 237.429688 214.65625 238.449219 215.140625 239.488281 215.570312 C 240.53125 216 241.589844 216.378906 242.667969 216.707031 C 243.746094 217.035156 244.835938 217.308594 245.941406 217.527344 C 247.046875 217.746094 248.160156 217.914062 249.28125 218.023438 C 250.402344 218.132812 251.527344 218.1875 252.652344 218.1875 C 253.78125 218.1875 254.902344 218.132812 256.023438 218.023438 C 257.144531 217.914062 258.257812 217.746094 259.363281 217.527344 C 260.46875 217.308594 261.5625 217.035156 262.640625 216.707031 C 263.71875 216.378906 264.777344 216 265.816406 215.570312 C 266.859375 215.140625 267.875 214.65625 268.871094 214.128906 C 269.863281 213.597656 270.828125 213.015625 271.765625 212.390625 C 272.703125 211.765625 273.605469 211.09375 274.476562 210.378906 C 275.347656 209.664062 276.179688 208.910156 276.976562 208.113281 C 277.773438 207.316406 278.53125 206.484375 279.246094 205.613281 C 279.960938 204.742188 280.628906 203.835938 281.257812 202.898438 C 281.882812 201.964844 282.460938 201 282.992188 200.003906 C 283.523438 199.011719 284.003906 197.992188 284.433594 196.953125 C 284.867188 195.910156 285.246094 194.851562 285.574219 193.773438 C 285.898438 192.695312 286.171875 191.605469 286.394531 190.5 C 286.613281 189.394531 286.777344 188.28125 286.886719 187.160156 C 287 186.039062 287.054688 184.914062 287.054688 183.789062 L 287.054688 169.046875 L 370.597656 169.046875 L 370.597656 183.789062 C 370.597656 184.914062 370.652344 186.039062 370.765625 187.160156 C 370.875 188.28125 371.039062 189.394531 371.257812 190.5 C 371.480469 191.605469 371.753906 192.695312 372.078125 193.773438 C 372.40625 194.851562 372.785156 195.910156 373.21875 196.953125 C 373.648438 197.992188 374.128906 199.011719 374.660156 200.003906 C 375.191406 201 375.769531 201.964844 376.394531 202.898438 C 377.023438 203.835938 377.691406 204.742188 378.40625 205.613281 C 379.121094 206.484375 379.878906 207.316406 380.675781 208.113281 C 381.472656 208.910156 382.304688 209.664062 383.175781 210.378906 C 384.046875 211.09375 384.949219 211.765625 385.886719 212.390625 C 386.824219 213.015625 387.789062 213.597656 388.78125 214.128906 C 389.777344 214.65625 390.792969 215.140625 391.835938 215.570312 C 392.875 216 393.933594 216.378906 395.011719 216.707031 C 396.089844 217.035156 397.183594 217.308594 398.289062 217.527344 C 399.394531 217.746094 400.507812 217.914062 401.628906 218.023438 C 402.75 218.132812 403.871094 218.1875 405 218.1875 C 406.125 218.1875 407.25 218.132812 408.371094 218.023438 C 409.492188 217.914062 410.605469 217.746094 411.710938 217.527344 C 412.816406 217.308594 413.90625 217.035156 414.984375 216.707031 C 416.0625 216.378906 417.121094 216 418.164062 215.570312 C 419.203125 215.140625 420.222656 214.65625 421.214844 214.128906 C 422.210938 213.597656 423.175781 213.015625 424.109375 212.390625 C 425.046875 211.765625 425.953125 211.09375 426.824219 210.378906 C 427.695312 209.664062 428.527344 208.910156 429.324219 208.113281 C 430.121094 207.316406 430.875 206.484375 431.589844 205.613281 C 432.304688 204.742188 432.976562 203.835938 433.601562 202.898438 C 434.226562 201.964844 434.808594 201 435.339844 200.003906 C 435.867188 199.011719 436.351562 197.992188 436.78125 196.953125 C 437.210938 195.910156 437.589844 194.851562 437.917969 193.773438 C 438.246094 192.695312 438.519531 191.605469 438.738281 190.5 C 438.957031 189.394531 439.125 188.28125 439.234375 187.160156 C 439.34375 186.039062 439.398438 184.914062 439.398438 183.789062 L 439.398438 169.046875 L 522.945312 169.046875 L 522.945312 183.789062 C 522.945312 184.914062 523 186.039062 523.109375 187.160156 C 523.21875 188.28125 523.386719 189.394531 523.605469 190.5 C 523.824219 191.605469 524.097656 192.695312 524.425781 193.773438 C 524.753906 194.851562 525.132812 195.910156 525.5625 196.953125 C 525.996094 197.992188 526.476562 199.011719 527.007812 200.003906 C 527.539062 201 528.117188 201.964844 528.742188 202.898438 C 529.367188 203.835938 530.039062 204.742188 530.753906 205.613281 C 531.46875 206.484375 532.222656 207.316406 533.019531 208.113281 C 533.816406 208.910156 534.652344 209.664062 535.523438 210.378906 C 536.394531 211.09375 537.296875 211.765625 538.234375 212.390625 C 539.171875 213.015625 540.136719 213.597656 541.128906 214.128906 C 542.121094 214.65625 543.140625 215.140625 544.179688 215.570312 C 545.222656 216 546.28125 216.378906 547.359375 216.707031 C 548.4375 217.035156 549.527344 217.308594 550.632812 217.527344 C 551.738281 217.746094 552.851562 217.914062 553.972656 218.023438 C 555.09375 218.132812 556.21875 218.1875 557.34375 218.1875 C 558.472656 218.1875 559.597656 218.132812 560.71875 218.023438 C 561.839844 217.914062 562.953125 217.746094 564.054688 217.527344 C 565.160156 217.308594 566.253906 217.035156 567.332031 216.707031 C 568.410156 216.378906 569.46875 216 570.511719 215.570312 C 571.550781 215.140625 572.566406 214.65625 573.5625 214.128906 C 574.554688 213.597656 575.519531 213.015625 576.457031 212.390625 C 577.394531 211.765625 578.296875 211.09375 579.167969 210.378906 C 580.039062 209.664062 580.875 208.910156 581.671875 208.113281 C 582.46875 207.316406 583.222656 206.484375 583.9375 205.613281 C 584.652344 204.742188 585.324219 203.835938 585.949219 202.898438 C 586.574219 201.964844 587.152344 201 587.683594 200.003906 C 588.214844 199.011719 588.695312 197.992188 589.128906 196.953125 C 589.558594 195.910156 589.9375 194.851562 590.265625 193.773438 C 590.59375 192.695312 590.863281 191.605469 591.085938 190.5 C 591.304688 189.394531 591.46875 188.28125 591.582031 187.160156 C 591.691406 186.039062 591.746094 184.914062 591.746094 183.789062 L 591.746094 169.046875 L 621.230469 169.046875 C 622.199219 169.046875 623.160156 169.09375 624.121094 169.1875 C 625.082031 169.28125 626.039062 169.421875 626.984375 169.613281 C 627.933594 169.800781 628.867188 170.035156 629.792969 170.316406 C 630.714844 170.59375 631.625 170.921875 632.515625 171.289062 C 633.410156 171.660156 634.28125 172.070312 635.132812 172.527344 C 635.984375 172.980469 636.8125 173.476562 637.613281 174.015625 C 638.417969 174.550781 639.191406 175.125 639.9375 175.738281 C 640.683594 176.351562 641.398438 177 642.082031 177.679688 C 642.765625 178.363281 643.414062 179.078125 644.027344 179.824219 C 644.636719 180.570312 645.210938 181.347656 645.75 182.148438 C 646.285156 182.953125 646.78125 183.78125 647.238281 184.632812 C 647.691406 185.484375 648.105469 186.355469 648.472656 187.246094 C 648.84375 188.140625 649.167969 189.046875 649.449219 189.972656 C 649.730469 190.894531 649.964844 191.832031 650.152344 192.777344 C 650.339844 193.726562 650.480469 194.679688 650.578125 195.640625 C 650.671875 196.601562 650.71875 197.566406 650.71875 198.53125 L 650.71875 267.332031 Z M 562.257812 581.855469 C 562.257812 580.886719 562.308594 579.925781 562.402344 578.964844 C 562.496094 578.003906 562.636719 577.046875 562.828125 576.101562 C 563.015625 575.152344 563.25 574.21875 563.53125 573.292969 C 563.808594 572.371094 564.132812 571.460938 564.503906 570.570312 C 564.875 569.675781 565.285156 568.804688 565.742188 567.953125 C 566.195312 567.101562 566.691406 566.273438 567.230469 565.472656 C 567.765625 564.667969 568.339844 563.894531 568.953125 563.148438 C 569.566406 562.402344 570.214844 561.6875 570.894531 561.003906 C 571.578125 560.320312 572.292969 559.671875 573.039062 559.0625 C 573.785156 558.449219 574.5625 557.875 575.363281 557.335938 C 576.167969 556.800781 576.996094 556.304688 577.847656 555.847656 C 578.699219 555.394531 579.570312 554.980469 580.460938 554.613281 C 581.355469 554.242188 582.261719 553.917969 583.1875 553.636719 C 584.109375 553.355469 585.046875 553.121094 585.992188 552.933594 C 586.941406 552.746094 587.894531 552.605469 588.855469 552.507812 C 589.816406 552.414062 590.78125 552.367188 591.746094 552.367188 L 636.835938 552.367188 L 562.257812 626.957031 Z M 621.230469 680.140625 L 188.765625 680.140625 C 187.78125 680.140625 186.800781 680.089844 185.824219 679.988281 C 184.847656 679.886719 183.875 679.738281 182.910156 679.542969 C 181.949219 679.347656 180.996094 679.101562 180.058594 678.808594 C 179.121094 678.519531 178.199219 678.179688 177.292969 677.796875 C 176.386719 677.414062 175.503906 676.984375 174.640625 676.515625 C 173.777344 676.042969 172.941406 675.527344 172.128906 674.972656 C 171.320312 674.417969 170.535156 673.824219 169.785156 673.1875 C 169.03125 672.554688 168.3125 671.886719 167.628906 671.179688 C 166.945312 670.476562 166.296875 669.738281 165.683594 668.96875 C 165.074219 668.199219 164.5 667.402344 163.96875 666.574219 C 163.4375 665.746094 162.949219 664.894531 162.5 664.019531 C 162.054688 663.144531 161.652344 662.246094 161.292969 661.332031 C 160.9375 660.414062 160.625 659.484375 160.359375 658.539062 C 160.09375 657.589844 159.878906 656.632812 159.710938 655.664062 C 159.539062 654.695312 159.421875 653.722656 159.347656 652.742188 C 159.277344 651.761719 159.253906 650.777344 159.28125 649.796875 C 161.375 651.40625 163.585938 652.835938 165.914062 654.085938 C 168.242188 655.335938 170.65625 656.386719 173.15625 657.246094 C 175.652344 658.101562 178.207031 658.753906 180.808594 659.195312 C 183.414062 659.636719 186.039062 659.867188 188.679688 659.882812 L 536.015625 660.484375 C 539.257812 660.484375 542.46875 660.167969 545.648438 659.539062 C 548.828125 658.90625 551.914062 657.972656 554.910156 656.734375 C 557.90625 655.5 560.753906 653.980469 563.453125 652.183594 C 566.152344 650.390625 568.648438 648.347656 570.945312 646.058594 L 650.71875 566.289062 L 650.71875 650.65625 C 650.71875 651.621094 650.671875 652.585938 650.578125 653.546875 C 650.480469 654.507812 650.339844 655.460938 650.152344 656.40625 C 649.964844 657.355469 649.730469 658.289062 649.449219 659.214844 C 649.167969 660.140625 648.84375 661.046875 648.472656 661.9375 C 648.105469 662.832031 647.691406 663.703125 647.238281 664.554688 C 646.78125 665.40625 646.285156 666.234375 645.75 667.035156 C 645.210938 667.839844 644.636719 668.613281 644.027344 669.359375 C 643.414062 670.109375 642.765625 670.824219 642.082031 671.503906 C 641.398438 672.1875 640.683594 672.835938 639.9375 673.449219 C 639.191406 674.0625 638.417969 674.636719 637.613281 675.171875 C 636.8125 675.707031 635.984375 676.203125 635.132812 676.660156 C 634.28125 677.113281 633.410156 677.527344 632.515625 677.898438 C 631.625 678.265625 630.714844 678.589844 629.792969 678.871094 C 628.867188 679.152344 627.933594 679.386719 626.984375 679.574219 C 626.039062 679.761719 625.082031 679.90625 624.121094 680 C 623.160156 680.09375 622.199219 680.140625 621.230469 680.140625 Z M 621.230469 680.140625 " fill-opacity="1" fill-rule="nonzero"/></g><g clip-path="url(#9ea9eb0184)"><path fill="#545454" d="M 159.28125 542.539062 C 159.28125 543.183594 159.21875 543.824219 159.089844 544.457031 C 158.964844 545.089844 158.777344 545.703125 158.53125 546.300781 C 158.285156 546.894531 157.980469 547.460938 157.625 548 C 157.265625 548.535156 156.859375 549.03125 156.402344 549.488281 C 155.945312 549.945312 155.449219 550.351562 154.910156 550.710938 C 154.375 551.070312 153.808594 551.371094 153.210938 551.621094 C 152.617188 551.867188 152 552.050781 151.367188 552.179688 C 150.734375 552.304688 150.097656 552.367188 149.449219 552.367188 C 148.804688 552.367188 148.167969 552.304688 147.535156 552.179688 C 146.902344 552.050781 146.285156 551.867188 145.691406 551.621094 C 145.09375 551.371094 144.527344 551.070312 143.992188 550.710938 C 143.453125 550.351562 142.957031 549.945312 142.5 549.488281 C 142.042969 549.03125 141.636719 548.535156 141.277344 548 C 140.921875 547.460938 140.617188 546.894531 140.371094 546.300781 C 140.125 545.703125 139.9375 545.089844 139.8125 544.457031 C 139.683594 543.824219 139.621094 543.183594 139.621094 542.539062 C 139.621094 541.894531 139.683594 541.253906 139.8125 540.621094 C 139.9375 539.988281 140.125 539.375 140.371094 538.777344 C 140.617188 538.179688 140.921875 537.613281 141.277344 537.078125 C 141.636719 536.542969 142.042969 536.046875 142.5 535.589844 C 142.957031 535.132812 143.453125 534.726562 143.992188 534.367188 C 144.527344 534.007812 145.09375 533.703125 145.691406 533.457031 C 146.285156 533.210938 146.902344 533.023438 147.535156 532.898438 C 148.167969 532.773438 148.804688 532.710938 149.449219 532.710938 C 150.097656 532.710938 150.734375 532.773438 151.367188 532.898438 C 152 533.023438 152.617188 533.210938 153.210938 533.457031 C 153.808594 533.703125 154.375 534.007812 154.910156 534.367188 C 155.449219 534.726562 155.945312 535.132812 156.402344 535.589844 C 156.859375 536.046875 157.265625 536.542969 157.625 537.078125 C 157.980469 537.613281 158.285156 538.179688 158.53125 538.777344 C 158.777344 539.375 158.964844 539.988281 159.089844 540.621094 C 159.21875 541.253906 159.28125 541.894531 159.28125 542.539062 Z M 159.28125 542.539062 " fill-opacity="1" fill-rule="nonzero"/></g></svg>