<svg xmlns="http://www.w3.org/2000/svg" xmlns:xlink="http://www.w3.org/1999/xlink" width="1080" zoomAndPan="magnify" viewBox="0 0 810 809.999993" height="1080" preserveAspectRatio="xMidYMid meet" version="1.0"><defs><clipPath id="b765b55ed7"><path d="M 139.113281 131.148438 L 670 131.148438 L 670 678.648438 L 139.113281 678.648438 Z M 139.113281 131.148438 " clip-rule="nonzero"/></clipPath></defs><g clip-path="url(#b765b55ed7)"><path fill="#545454" d="M 139.761719 353.59375 L 139.761719 673.046875 C 139.761719 673.429688 139.800781 673.804688 139.875 674.179688 C 139.949219 674.550781 140.058594 674.914062 140.203125 675.265625 C 140.351562 675.617188 140.53125 675.953125 140.742188 676.269531 C 140.953125 676.585938 141.191406 676.878906 141.460938 677.148438 C 141.730469 677.417969 142.023438 677.660156 142.339844 677.871094 C 142.65625 678.082031 142.992188 678.261719 143.34375 678.40625 C 143.695312 678.550781 144.058594 678.660156 144.433594 678.734375 C 144.804688 678.808594 145.183594 678.847656 145.5625 678.847656 L 641.476562 678.847656 C 641.855469 678.847656 642.234375 678.808594 642.605469 678.734375 C 642.980469 678.660156 643.34375 678.550781 643.695312 678.40625 C 644.046875 678.261719 644.378906 678.082031 644.695312 677.871094 C 645.011719 677.660156 645.304688 677.417969 645.574219 677.148438 C 645.84375 676.878906 646.085938 676.585938 646.296875 676.269531 C 646.507812 675.953125 646.6875 675.617188 646.832031 675.265625 C 646.980469 674.914062 647.089844 674.550781 647.164062 674.179688 C 647.238281 673.804688 647.273438 673.429688 647.273438 673.046875 L 647.273438 353.59375 C 647.261719 352.542969 646.988281 351.566406 646.453125 350.664062 L 646.78125 350.390625 L 647.054688 350.171875 C 647.242188 350.019531 647.40625 349.847656 647.546875 349.652344 L 647.792969 349.378906 L 648.203125 348.75 C 648.265625 348.667969 648.3125 348.578125 648.339844 348.476562 C 648.511719 348.164062 648.648438 347.835938 648.75 347.492188 L 669.269531 276.144531 C 669.375 275.777344 669.441406 275.40625 669.472656 275.027344 C 669.503906 274.648438 669.5 274.269531 669.457031 273.890625 C 669.414062 273.515625 669.332031 273.144531 669.21875 272.78125 C 669.101562 272.417969 668.953125 272.070312 668.769531 271.738281 C 668.585938 271.40625 668.371094 271.09375 668.125 270.804688 C 667.878906 270.515625 667.609375 270.25 667.308594 270.011719 C 667.011719 269.777344 666.695312 269.570312 666.359375 269.394531 C 666.019531 269.222656 665.667969 269.082031 665.304688 268.976562 L 625.851562 257.539062 L 581.289062 244.738281 L 542.167969 233.492188 L 485.507812 217.078125 L 452.214844 207.503906 L 408.578125 195.164062 L 385.734375 188.570312 L 323.824219 170.789062 L 317.972656 169.09375 L 236.855469 145.785156 L 193.847656 133.390625 L 188.679688 131.914062 C 188.3125 131.808594 187.941406 131.742188 187.5625 131.710938 C 187.183594 131.679688 186.804688 131.683594 186.425781 131.726562 C 186.050781 131.769531 185.679688 131.851562 185.316406 131.964844 C 184.953125 132.082031 184.609375 132.230469 184.273438 132.414062 C 183.941406 132.601562 183.628906 132.816406 183.339844 133.058594 C 183.050781 133.304688 182.785156 133.578125 182.550781 133.875 C 182.3125 134.171875 182.105469 134.488281 181.929688 134.828125 C 181.757812 135.164062 181.617188 135.515625 181.511719 135.882812 L 161.019531 207.230469 C 160.820312 207.976562 160.773438 208.730469 160.882812 209.496094 C 160.992188 210.261719 161.246094 210.972656 161.648438 211.632812 C 162.023438 212.300781 162.507812 212.867188 163.105469 213.339844 C 163.699219 213.816406 164.363281 214.15625 165.097656 214.371094 L 197.953125 223.890625 L 240.988281 236.257812 L 284.949219 248.894531 L 289.109375 250.097656 L 467.425781 301.3125 L 499.324219 310.503906 L 542.386719 322.871094 L 556.335938 326.890625 L 628.835938 347.820312 L 145.5625 347.820312 C 145.183594 347.820312 144.808594 347.855469 144.433594 347.929688 C 144.0625 348.003906 143.699219 348.113281 143.351562 348.257812 C 143 348.402344 142.664062 348.582031 142.351562 348.792969 C 142.035156 349.003906 141.742188 349.242188 141.472656 349.507812 C 141.203125 349.777344 140.960938 350.070312 140.75 350.382812 C 140.539062 350.699219 140.359375 351.03125 140.210938 351.382812 C 140.066406 351.730469 139.957031 352.09375 139.878906 352.464844 C 139.804688 352.835938 139.765625 353.214844 139.761719 353.59375 Z M 228.59375 421.988281 L 204.164062 359.363281 L 237.457031 359.363281 L 261.886719 422.042969 Z M 319.066406 421.988281 L 294.636719 359.363281 L 325.796875 359.363281 L 350.226562 422.042969 Z M 407.265625 421.988281 L 382.835938 359.363281 L 415.800781 359.363281 L 440.230469 422.042969 Z M 497.410156 421.988281 L 472.980469 359.363281 L 505.34375 359.363281 L 529.773438 422.042969 Z M 586.976562 421.988281 L 562.546875 359.308594 L 596.472656 359.308594 L 620.902344 421.988281 Z M 241.808594 159.246094 L 273.816406 168.464844 L 279.972656 235.40625 L 247.964844 226.214844 Z M 328.777344 184.25 L 358.625 192.8125 L 364.78125 259.785156 L 334.933594 251.21875 Z M 413.585938 208.625 L 445.265625 217.734375 L 451.421875 284.707031 L 419.6875 275.597656 Z M 500.199219 233.546875 L 531.332031 242.492188 L 537.433594 309.519531 L 506.355469 300.519531 Z M 586.292969 258.167969 L 618.90625 267.554688 L 625.058594 334.523438 L 592.449219 325.140625 Z M 171.417969 422.042969 L 151.335938 422.042969 L 151.335938 370.582031 Z M 187.832031 155.441406 L 192.890625 210.402344 L 173.742188 204.929688 Z M 151.335938 667.273438 L 151.335938 433.613281 L 635.566406 433.613281 L 635.566406 667.273438 Z M 151.335938 667.273438 " fill-opacity="1" fill-rule="nonzero"/></g></svg>